<svg version="1.1" viewBox="0.0 0.0 600.0 371.0" fill="none" stroke="none" stroke-linecap="square" stroke-miterlimit="10" width="600" height="371" xmlns:xlink="http://www.w3.org/1999/xlink" xmlns="http://www.w3.org/2000/svg"><path fill="#ffffff" d="M0 0L600.0 0L600.0 371.0L0 371.0L0 0Z" fill-rule="nonzero"/><path stroke="#333333" stroke-width="1.0" stroke-linecap="butt" d="M88.5 295.5L498.5 295.5" fill-rule="nonzero"/><path stroke="#cccccc" stroke-width="1.0" stroke-linecap="butt" d="M88.5 247.5L498.5 247.5" fill-rule="nonzero"/><path stroke="#cccccc" stroke-width="1.0" stroke-linecap="butt" d="M88.5 200.5L498.5 200.5" fill-rule="nonzero"/><path stroke="#cccccc" stroke-width="1.0" stroke-linecap="butt" d="M88.5 152.5L498.5 152.5" fill-rule="nonzero"/><path stroke="#cccccc" stroke-width="1.0" stroke-linecap="butt" d="M88.5 104.5L498.5 104.5" fill-rule="nonzero"/><path stroke="#cccccc" stroke-width="1.0" stroke-linecap="butt" d="M88.5 56.5L498.5 56.5" fill-rule="nonzero"/><path stroke="#e6e6e6" stroke-width="1.0" stroke-linecap="butt" d="M88.5 279.5L498.5 279.5" fill-rule="nonzero"/><path stroke="#e6e6e6" stroke-width="1.0" stroke-linecap="butt" d="M88.5 263.5L498.5 263.5" fill-rule="nonzero"/><path stroke="#e6e6e6" stroke-width="1.0" stroke-linecap="butt" d="M88.5 231.5L498.5 231.5" fill-rule="nonzero"/><path stroke="#e6e6e6" stroke-width="1.0" stroke-linecap="butt" d="M88.5 215.5L498.5 215.5" fill-rule="nonzero"/><path stroke="#e6e6e6" stroke-width="1.0" stroke-linecap="butt" d="M88.5 184.5L498.5 184.5" fill-rule="nonzero"/><path stroke="#e6e6e6" stroke-width="1.0" stroke-linecap="butt" d="M88.5 168.5L498.5 168.5" fill-rule="nonzero"/><path stroke="#e6e6e6" stroke-width="1.0" stroke-linecap="butt" d="M88.5 136.5L498.5 136.5" fill-rule="nonzero"/><path stroke="#e6e6e6" stroke-width="1.0" stroke-linecap="butt" d="M88.5 120.5L498.5 120.5" fill-rule="nonzero"/><path stroke="#e6e6e6" stroke-width="1.0" stroke-linecap="butt" d="M88.5 88.5L498.5 88.5" fill-rule="nonzero"/><path stroke="#e6e6e6" stroke-width="1.0" stroke-linecap="butt" d="M88.5 72.5L498.5 72.5" fill-rule="nonzero"/><path stroke="#000000" stroke-width="1.0" stroke-linecap="butt" d="M88.5 295.5L88.5 56.5" fill-rule="nonzero"/><clipPath id="id_0"><path d="M88.55 56.916668L498.2811 56.916668L498.2811 295.45L88.55 295.45L88.55 56.916668Z" clip-rule="nonzero"/></clipPath><path stroke="#000000" stroke-width="2.0" stroke-linecap="butt" stroke-opacity="0.0" clip-path="url(#id_0)" d="M151.0 295.0L122.0 295.0L122.0 61.0C122.0 59.89543 122.89543 59.0 124.0 59.0L149.0 59.0C150.10457 59.0 151.0 59.89543 151.0 61.0Z" fill-rule="nonzero"/><path fill="#4285f4" clip-path="url(#id_0)" d="M151.0 295.0L122.0 295.0L122.0 61.0C122.0 59.89543 122.89543 59.0 124.0 59.0L149.0 59.0C150.10457 59.0 151.0 59.89543 151.0 61.0Z" fill-rule="nonzero"/><path stroke="#000000" stroke-width="2.0" stroke-linecap="butt" stroke-opacity="0.0" clip-path="url(#id_0)" d="M245.0 295.0L216.0 295.0L216.0 183.0C216.0 181.89543 216.89543 181.0 218.0 181.0L243.0 181.0C244.10457 181.0 245.0 181.89543 245.0 183.0Z" fill-rule="nonzero"/><path fill="#4285f4" clip-path="url(#id_0)" d="M245.0 295.0L216.0 295.0L216.0 183.0C216.0 181.89543 216.89543 181.0 218.0 181.0L243.0 181.0C244.10457 181.0 245.0 181.89543 245.0 183.0Z" fill-rule="nonzero"/><path stroke="#000000" stroke-width="2.0" stroke-linecap="butt" stroke-opacity="0.0" clip-path="url(#id_0)" d="M340.0 295.0L311.0 295.0L311.0 244.0C311.0 242.89543 311.89542 242.0 313.0 242.0L338.0 242.0C339.10458 242.0 340.0 242.89543 340.0 244.0Z" fill-rule="nonzero"/><path fill="#4285f4" clip-path="url(#id_0)" d="M340.0 295.0L311.0 295.0L311.0 244.0C311.0 242.89543 311.89542 242.0 313.0 242.0L338.0 242.0C339.10458 242.0 340.0 242.89543 340.0 244.0Z" fill-rule="nonzero"/><path stroke="#000000" stroke-width="2.0" stroke-linecap="butt" stroke-opacity="0.0" clip-path="url(#id_0)" d="M434.0 295.0L405.0 295.0L405.0 282.0C405.0 280.89542 405.89542 280.0 407.0 280.0L432.0 280.0C433.10458 280.0 434.0 280.89542 434.0 282.0Z" fill-rule="nonzero"/><path fill="#4285f4" clip-path="url(#id_0)" d="M434.0 295.0L405.0 295.0L405.0 282.0C405.0 280.89542 405.89542 280.0 407.0 280.0L432.0 280.0C433.10458 280.0 434.0 280.89542 434.0 282.0Z" fill-rule="nonzero"/><path stroke="#000000" stroke-width="2.0" stroke-linecap="butt" stroke-opacity="0.0" clip-path="url(#id_0)" d="M182.0 295.0L153.0 295.0L153.0 61.0C153.0 59.89543 153.89543 59.0 155.0 59.0L180.0 59.0C181.10457 59.0 182.0 59.89543 182.0 61.0Z" fill-rule="nonzero"/><path fill="#ea4335" clip-path="url(#id_0)" d="M182.0 295.0L153.0 295.0L153.0 61.0C153.0 59.89543 153.89543 59.0 155.0 59.0L180.0 59.0C181.10457 59.0 182.0 59.89543 182.0 61.0Z" fill-rule="nonzero"/><path stroke="#000000" stroke-width="2.0" stroke-linecap="butt" stroke-opacity="0.0" clip-path="url(#id_0)" d="M276.0 295.0L247.0 295.0L247.0 168.0C247.0 166.89543 247.89543 166.0 249.0 166.0L274.0 166.0C275.10458 166.0 276.0 166.89543 276.0 168.0Z" fill-rule="nonzero"/><path fill="#ea4335" clip-path="url(#id_0)" d="M276.0 295.0L247.0 295.0L247.0 168.0C247.0 166.89543 247.89543 166.0 249.0 166.0L274.0 166.0C275.10458 166.0 276.0 166.89543 276.0 168.0Z" fill-rule="nonzero"/><path stroke="#000000" stroke-width="2.0" stroke-linecap="butt" stroke-opacity="0.0" clip-path="url(#id_0)" d="M371.0 295.0L342.0 295.0L342.0 221.0C342.0 219.89543 342.89542 219.0 344.0 219.0L369.0 219.0C370.10458 219.0 371.0 219.89543 371.0 221.0Z" fill-rule="nonzero"/><path fill="#ea4335" clip-path="url(#id_0)" d="M371.0 295.0L342.0 295.0L342.0 221.0C342.0 219.89543 342.89542 219.0 344.0 219.0L369.0 219.0C370.10458 219.0 371.0 219.89543 371.0 221.0Z" fill-rule="nonzero"/><path stroke="#000000" stroke-width="2.0" stroke-linecap="butt" stroke-opacity="0.0" clip-path="url(#id_0)" d="M465.0 295.0L436.0 295.0L436.0 252.0C436.0 250.89543 436.89542 250.0 438.0 250.0L463.0 250.0C464.10458 250.0 465.0 250.89543 465.0 252.0Z" fill-rule="nonzero"/><path fill="#ea4335" clip-path="url(#id_0)" d="M465.0 295.0L436.0 295.0L436.0 252.0C436.0 250.89543 436.89542 250.0 438.0 250.0L463.0 250.0C464.10458 250.0 465.0 250.89543 465.0 252.0Z" fill-rule="nonzero"/><path stroke="#000000" stroke-width="1.0" stroke-linecap="butt" d="M82.5 295.5L94.5 295.5" fill-rule="nonzero"/><path stroke="#000000" stroke-width="1.0" stroke-linecap="butt" d="M82.5 247.5L94.5 247.5" fill-rule="nonzero"/><path stroke="#000000" stroke-width="1.0" stroke-linecap="butt" d="M82.5 200.5L94.5 200.5" fill-rule="nonzero"/><path stroke="#000000" stroke-width="1.0" stroke-linecap="butt" d="M82.5 152.5L94.5 152.5" fill-rule="nonzero"/><path stroke="#000000" stroke-width="1.0" stroke-linecap="butt" d="M82.5 104.5L94.5 104.5" fill-rule="nonzero"/><path stroke="#000000" stroke-width="1.0" stroke-linecap="butt" d="M82.5 56.5L94.5 56.5" fill-rule="nonzero"/><path fill="#000000" d="M202.46243 349.45L202.46243 339.4344L204.43118 339.4344L208.52493 346.1219L208.52493 339.4344L210.39993 339.4344L210.39993 349.45L208.36868 349.45L204.33743 342.91876L204.33743 349.45L202.46243 349.45ZM217.19681 349.45L217.19681 348.35626Q216.80618 348.95 216.14993 349.29376Q215.50931 349.6219 214.79056 349.6219Q214.05618 349.6219 213.47806 349.29376Q212.89993 348.96564 212.63431 348.3875Q212.38431 347.8094 212.38431 346.77814L212.38431 342.1844L214.30618 342.1844L214.30618 345.52814Q214.30618 347.0594 214.39993 347.40314Q214.50931 347.7469 214.79056 347.95Q215.07181 348.15314 215.50931 348.15314Q215.99368 348.15314 216.38431 347.8875Q216.77493 347.60626 216.91556 347.21564Q217.05618 346.8094 217.05618 345.2469L217.05618 342.1844L218.97806 342.1844L218.97806 349.45L217.19681 349.45ZM221.27493 342.1844L223.04056 342.1844L223.04056 343.1844Q223.99368 342.02814 225.30618 342.02814Q226.00931 342.02814 226.52493 342.325Q227.04056 342.60626 227.36868 343.1844Q227.83743 342.60626 228.38431 342.325Q228.94681 342.02814 229.57181 342.02814Q230.36868 342.02814 230.91556 342.35626Q231.47806 342.66876 231.75931 343.3094Q231.96243 343.7625 231.96243 344.8094L231.96243 349.45L230.04056 349.45L230.04056 345.29376Q230.04056 344.21564 229.83743 343.90314Q229.57181 343.4969 229.00931 343.4969Q228.61868 343.4969 228.25931 343.7469Q227.89993 343.98126 227.74368 344.46564Q227.58743 344.9344 227.58743 345.96564L227.58743 349.45L225.66556 349.45L225.66556 345.46564Q225.66556 344.41876 225.55618 344.10626Q225.46243 343.79376 225.24368 343.65314Q225.02493 343.4969 224.66556 343.4969Q224.21243 343.4969 223.85306 343.7469Q223.50931 343.98126 223.35306 344.4344Q223.19681 344.8719 223.19681 345.91876L223.19681 349.45L221.27493 349.45L221.27493 342.1844ZM233.33743 349.45L233.33743 339.4344L235.25931 339.4344L235.25931 343.04376Q236.14993 342.02814 237.36868 342.02814Q238.69681 342.02814 239.55618 342.9969Q240.43118 343.95 240.43118 345.7469Q240.43118 347.60626 239.54056 348.6219Q238.64993 349.6219 237.39993 349.6219Q236.77493 349.6219 236.16556 349.3094Q235.55618 348.9969 235.11868 348.3875L235.11868 349.45L233.33743 349.45ZM235.24368 345.66876Q235.24368 346.79376 235.60306 347.325Q236.10306 348.09064 236.93118 348.09064Q237.55618 348.09064 238.00931 347.5594Q238.46243 347.0125 238.46243 345.84064Q238.46243 344.59064 238.00931 344.04376Q237.55618 343.4969 236.85306 343.4969Q236.16556 343.4969 235.69681 344.04376Q235.24368 344.575 235.24368 345.66876ZM246.61868 347.1375L248.54056 347.46564Q248.16556 348.5125 247.36868 349.075Q246.57181 349.6219 245.38431 349.6219Q243.49368 349.6219 242.57181 348.3719Q241.85306 347.3875 241.85306 345.8719Q241.85306 344.075 242.79056 343.0594Q243.74368 342.02814 245.19681 342.02814Q246.80618 342.02814 247.74368 343.10626Q248.68118 344.16876 248.63431 346.3719L243.82181 346.3719Q243.85306 347.23126 244.29056 347.71564Q244.74368 348.1844 245.39993 348.1844Q245.85306 348.1844 246.14993 347.9344Q246.46243 347.6844 246.61868 347.1375ZM246.72806 345.2Q246.71243 344.35626 246.30618 343.9344Q245.89993 343.4969 245.30618 343.4969Q244.68118 343.4969 244.25931 343.95Q243.85306 344.41876 243.86868 345.2L246.72806 345.2ZM253.25931 349.45L251.33743 349.45L251.33743 342.1844L253.11868 342.1844L253.11868 343.21564Q253.58743 342.4969 253.94681 342.2625Q254.30618 342.02814 254.77493 342.02814Q255.43118 342.02814 256.04056 342.3875L255.44681 344.0594Q254.96243 343.7469 254.54056 343.7469Q254.13431 343.7469 253.85306 343.98126Q253.58743 344.2 253.41556 344.77814Q253.25931 345.35626 253.25931 347.2L253.25931 349.45ZM260.97806 345.71564Q260.97806 344.7625 261.4468 343.8719Q261.91556 342.96564 262.77493 342.4969Q263.64993 342.02814 264.71243 342.02814Q266.36868 342.02814 267.41556 343.10626Q268.46243 344.16876 268.46243 345.79376Q268.46243 347.45 267.39993 348.54376Q266.33743 349.6219 264.72806 349.6219Q263.72806 349.6219 262.8218 349.16876Q261.91556 348.71564 261.4468 347.84064Q260.97806 346.96564 260.97806 345.71564ZM262.9468 345.825Q262.9468 346.90314 263.46243 347.48126Q263.97806 348.04376 264.72806 348.04376Q265.47806 348.04376 265.97806 347.48126Q266.49368 346.90314 266.49368 345.8094Q266.49368 344.7469 265.97806 344.16876Q265.47806 343.59064 264.72806 343.59064Q263.97806 343.59064 263.46243 344.16876Q262.9468 344.7469 262.9468 345.825ZM269.58743 342.1844L270.64993 342.1844L270.64993 341.6375Q270.64993 340.73126 270.83743 340.27814Q271.04056 339.825 271.55618 339.54376Q272.08743 339.2625 272.8843 339.2625Q273.6968 339.2625 274.49368 339.4969L274.22806 340.84064Q273.77493 340.73126 273.35306 340.73126Q272.93118 340.73126 272.74368 340.9344Q272.5718 341.1219 272.5718 341.6844L272.5718 342.1844L274.0093 342.1844L274.0093 343.7L272.5718 343.7L272.5718 349.45L270.64993 349.45L270.64993 343.7L269.58743 343.7L269.58743 342.1844ZM279.43118 349.45L279.43118 339.4344L282.68118 339.4344Q284.52493 339.4344 285.08743 339.575Q285.9468 339.8094 286.52493 340.5594Q287.11868 341.3094 287.11868 342.5125Q287.11868 343.4344 286.77493 344.0594Q286.4468 344.6844 285.93118 345.04376Q285.41556 345.40314 284.86868 345.52814Q284.14993 345.66876 282.77493 345.66876L281.46243 345.66876L281.46243 349.45L279.43118 349.45ZM281.46243 341.1219L281.46243 343.96564L282.5718 343.96564Q283.7593 343.96564 284.16556 343.8094Q284.5718 343.65314 284.79056 343.325Q285.02493 342.98126 285.02493 342.54376Q285.02493 341.9969 284.6968 341.6375Q284.3843 341.27814 283.8843 341.1844Q283.52493 341.1219 282.43118 341.1219L281.46243 341.1219ZM289.85306 344.40314L288.11868 344.09064Q288.39993 343.04376 289.11868 342.54376Q289.83743 342.02814 291.2593 342.02814Q292.54056 342.02814 293.16556 342.34064Q293.80618 342.6375 294.05618 343.10626Q294.30618 343.575 294.30618 344.825L294.29056 347.0594Q294.29056 348.02814 294.3843 348.48126Q294.47806 348.9344 294.72806 349.45L292.83743 349.45Q292.7593 349.2625 292.64993 348.8875Q292.60306 348.71564 292.5718 348.65314Q292.08743 349.1375 291.52493 349.3875Q290.96243 349.6219 290.3218 349.6219Q289.21243 349.6219 288.55618 349.0125Q287.91556 348.40314 287.91556 347.46564Q287.91556 346.85626 288.21243 346.3719Q288.5093 345.8875 289.02493 345.6375Q289.55618 345.3719 290.55618 345.1844Q291.89993 344.9344 292.43118 344.71564L292.43118 344.52814Q292.43118 343.96564 292.14993 343.73126Q291.8843 343.4969 291.11868 343.4969Q290.60306 343.4969 290.3218 343.7Q290.04056 343.90314 289.85306 344.40314ZM292.43118 345.96564Q292.05618 346.09064 291.2593 346.2625Q290.46243 346.4344 290.21243 346.59064Q289.83743 346.85626 289.83743 347.2625Q289.83743 347.66876 290.1343 347.96564Q290.43118 348.2625 290.89993 348.2625Q291.41556 348.2625 291.89993 347.91876Q292.24368 347.65314 292.35306 347.27814Q292.43118 347.04376 292.43118 346.34064L292.43118 345.96564ZM298.2593 349.45L296.33743 349.45L296.33743 342.1844L298.11868 342.1844L298.11868 343.21564Q298.58743 342.4969 298.9468 342.2625Q299.30618 342.02814 299.77493 342.02814Q300.43118 342.02814 301.04056 342.3875L300.4468 344.0594Q299.96243 343.7469 299.54056 343.7469Q299.1343 343.7469 298.85306 343.98126Q298.58743 344.2 298.41556 344.77814Q298.2593 345.35626 298.2593 347.2L298.2593 349.45ZM303.85306 344.40314L302.11868 344.09064Q302.39993 343.04376 303.11868 342.54376Q303.83743 342.02814 305.2593 342.02814Q306.54056 342.02814 307.16556 342.34064Q307.80618 342.6375 308.05618 343.10626Q308.30618 343.575 308.30618 344.825L308.29056 347.0594Q308.29056 348.02814 308.3843 348.48126Q308.47806 348.9344 308.72806 349.45L306.83743 349.45Q306.7593 349.2625 306.64993 348.8875Q306.60306 348.71564 306.5718 348.65314Q306.08743 349.1375 305.52493 349.3875Q304.96243 349.6219 304.3218 349.6219Q303.21243 349.6219 302.55618 349.0125Q301.91556 348.40314 301.91556 347.46564Q301.91556 346.85626 302.21243 346.3719Q302.5093 345.8875 303.02493 345.6375Q303.55618 345.3719 304.55618 345.1844Q305.89993 344.9344 306.43118 344.71564L306.43118 344.52814Q306.43118 343.96564 306.14993 343.73126Q305.8843 343.4969 305.11868 343.4969Q304.60306 343.4969 304.3218 343.7Q304.04056 343.90314 303.85306 344.40314ZM306.43118 345.96564Q306.05618 346.09064 305.2593 346.2625Q304.46243 346.4344 304.21243 346.59064Q303.83743 346.85626 303.83743 347.2625Q303.83743 347.66876 304.1343 347.96564Q304.43118 348.2625 304.89993 348.2625Q305.41556 348.2625 305.89993 347.91876Q306.24368 347.65314 306.35306 347.27814Q306.43118 347.04376 306.43118 346.34064L306.43118 345.96564ZM310.27493 342.1844L312.04056 342.1844L312.04056 343.1844Q312.99368 342.02814 314.30618 342.02814Q315.0093 342.02814 315.52493 342.325Q316.04056 342.60626 316.36868 343.1844Q316.83743 342.60626 317.3843 342.325Q317.9468 342.02814 318.5718 342.02814Q319.36868 342.02814 319.91556 342.35626Q320.47806 342.66876 320.7593 343.3094Q320.96243 343.7625 320.96243 344.8094L320.96243 349.45L319.04056 349.45L319.04056 345.29376Q319.04056 344.21564 318.83743 343.90314Q318.5718 343.4969 318.0093 343.4969Q317.61868 343.4969 317.2593 343.7469Q316.89993 343.98126 316.74368 344.46564Q316.58743 344.9344 316.58743 345.96564L316.58743 349.45L314.66556 349.45L314.66556 345.46564Q314.66556 344.41876 314.55618 344.10626Q314.46243 343.79376 314.24368 343.65314Q314.02493 343.4969 313.66556 343.4969Q313.21243 343.4969 312.85306 343.7469Q312.5093 343.98126 312.35306 344.4344Q312.1968 344.8719 312.1968 345.91876L312.1968 349.45L310.27493 349.45L310.27493 342.1844ZM326.61868 347.1375L328.54056 347.46564Q328.16556 348.5125 327.36868 349.075Q326.5718 349.6219 325.3843 349.6219Q323.49368 349.6219 322.5718 348.3719Q321.85306 347.3875 321.85306 345.8719Q321.85306 344.075 322.79056 343.0594Q323.74368 342.02814 325.1968 342.02814Q326.80618 342.02814 327.74368 343.10626Q328.68118 344.16876 328.6343 346.3719L323.8218 346.3719Q323.85306 347.23126 324.29056 347.71564Q324.74368 348.1844 325.39993 348.1844Q325.85306 348.1844 326.14993 347.9344Q326.46243 347.6844 326.61868 347.1375ZM326.72806 345.2Q326.71243 344.35626 326.30618 343.9344Q325.89993 343.4969 325.30618 343.4969Q324.68118 343.4969 324.2593 343.95Q323.85306 344.41876 323.86868 345.2L326.72806 345.2ZM334.74368 342.1844L334.74368 343.71564L333.43118 343.71564L333.43118 346.65314Q333.43118 347.52814 333.46243 347.6844Q333.5093 347.825 333.6343 347.9344Q333.77493 348.02814 333.97806 348.02814Q334.24368 348.02814 334.74368 347.84064L334.89993 349.325Q334.24368 349.6219 333.3843 349.6219Q332.86868 349.6219 332.4468 349.45Q332.04056 349.2625 331.83743 348.9969Q331.64993 348.71564 331.5718 348.2469Q331.5093 347.90314 331.5093 346.8875L331.5093 343.71564L330.6343 343.71564L330.6343 342.1844L331.5093 342.1844L331.5093 340.7469L333.43118 339.6219L333.43118 342.1844L334.74368 342.1844ZM340.61868 347.1375L342.54056 347.46564Q342.16556 348.5125 341.36868 349.075Q340.5718 349.6219 339.3843 349.6219Q337.49368 349.6219 336.5718 348.3719Q335.85306 347.3875 335.85306 345.8719Q335.85306 344.075 336.79056 343.0594Q337.74368 342.02814 339.1968 342.02814Q340.80618 342.02814 341.74368 343.10626Q342.68118 344.16876 342.6343 346.3719L337.8218 346.3719Q337.85306 347.23126 338.29056 347.71564Q338.74368 348.1844 339.39993 348.1844Q339.85306 348.1844 340.14993 347.9344Q340.46243 347.6844 340.61868 347.1375ZM340.72806 345.2Q340.71243 344.35626 340.30618 343.9344Q339.89993 343.4969 339.30618 343.4969Q338.68118 343.4969 338.2593 343.95Q337.85306 344.41876 337.86868 345.2L340.72806 345.2ZM347.2593 349.45L345.33743 349.45L345.33743 342.1844L347.11868 342.1844L347.11868 343.21564Q347.58743 342.4969 347.9468 342.2625Q348.30618 342.02814 348.77493 342.02814Q349.43118 342.02814 350.04056 342.3875L349.4468 344.0594Q348.96243 343.7469 348.54056 343.7469Q348.1343 343.7469 347.85306 343.98126Q347.58743 344.2 347.41556 344.77814Q347.2593 345.35626 347.2593 347.2L347.2593 349.45ZM350.74368 347.3719L352.66556 347.09064Q352.79056 347.6375 353.16556 347.9344Q353.54056 348.23126 354.22806 348.23126Q354.96243 348.23126 355.33743 347.95Q355.60306 347.7625 355.60306 347.4344Q355.60306 347.21564 355.46243 347.075Q355.3218 346.9344 354.8218 346.825Q352.49368 346.3094 351.86868 345.8875Q351.0093 345.29376 351.0093 344.2469Q351.0093 343.3094 351.74368 342.66876Q352.49368 342.02814 354.0718 342.02814Q355.55618 342.02814 356.27493 342.5125Q357.0093 342.9969 357.27493 343.95L355.46243 344.27814Q355.35306 343.85626 355.02493 343.6375Q354.6968 343.40314 354.10306 343.40314Q353.33743 343.40314 353.0093 343.6219Q352.79056 343.7625 352.79056 344.0125Q352.79056 344.21564 352.99368 344.35626Q353.24368 344.54376 354.77493 344.90314Q356.3218 345.2469 356.93118 345.7469Q357.52493 346.2625 357.52493 347.1844Q357.52493 348.1844 356.68118 348.90314Q355.85306 349.6219 354.22806 349.6219Q352.74368 349.6219 351.86868 349.0125Q351.0093 348.40314 350.74368 347.3719ZM366.60306 352.40314L365.29056 352.40314Q364.24368 350.825 363.6968 349.1219Q363.14993 347.41876 363.14993 345.825Q363.14993 343.84064 363.8218 342.075Q364.41556 340.54376 365.3218 339.2625L366.6343 339.2625Q365.6968 341.325 365.33743 342.77814Q364.99368 344.23126 364.99368 345.85626Q364.99368 346.98126 365.1968 348.16876Q365.39993 349.34064 365.7593 350.3875Q366.0093 351.09064 366.60306 352.40314ZM368.39993 349.45L368.39993 339.4344L371.43118 339.4344L373.2593 346.2625L375.05618 339.4344L378.08743 339.4344L378.08743 349.45L376.21243 349.45L376.21243 341.5594L374.21243 349.45L372.27493 349.45L370.29056 341.5594L370.29056 349.45L368.39993 349.45ZM380.8843 352.40314Q381.46243 351.1844 381.68118 350.52814Q381.91556 349.8875 382.11868 349.04376Q382.3218 348.1844 382.41556 347.41876Q382.5093 346.65314 382.5093 345.85626Q382.5093 344.23126 382.14993 342.77814Q381.80618 341.325 380.86868 339.2625L382.18118 339.2625Q383.21243 340.73126 383.77493 342.3875Q384.35306 344.02814 384.35306 345.71564Q384.35306 347.15314 383.89993 348.77814Q383.3843 350.60626 382.21243 352.40314L380.8843 352.40314Z" fill-rule="nonzero"/><path fill="#000000" d="M31.550013 233.69896L21.534388 233.69896L21.534388 230.66771L28.362513 228.83958L21.534388 227.04271L21.534388 224.01146L31.550013 224.01146L31.550013 225.88646L23.659388 225.88646L31.550013 227.88646L31.550013 229.82396L23.659388 231.80833L31.550013 231.80833L31.550013 233.69896ZM26.503138 219.24583L26.190638 220.98021Q25.143763 220.69896 24.643763 219.98021Q24.128138 219.26146 24.128138 217.83958Q24.128138 216.55833 24.440638 215.93333Q24.737513 215.29271 25.206263 215.04271Q25.675013 214.79271 26.925013 214.79271L29.159388 214.80833Q30.128138 214.80833 30.581263 214.71458Q31.034388 214.62083 31.550013 214.37083L31.550013 216.26146Q31.362513 216.33958 30.987513 216.44896Q30.815638 216.49583 30.753138 216.52708Q31.237513 217.01146 31.487513 217.57396Q31.721888 218.13646 31.721888 218.77708Q31.721888 219.88646 31.112513 220.54271Q30.503138 221.18333 29.565638 221.18333Q28.956263 221.18333 28.471888 220.88646Q27.987513 220.58958 27.737513 220.07396Q27.471888 219.54271 27.284388 218.54271Q27.034388 217.19896 26.815638 216.66771L26.628138 216.66771Q26.065638 216.66771 25.831263 216.94896Q25.596888 217.21458 25.596888 217.98021Q25.596888 218.49583 25.800013 218.77708Q26.003138 219.05833 26.503138 219.24583ZM28.065638 216.66771Q28.190638 217.04271 28.362513 217.83958Q28.534388 218.63646 28.690638 218.88646Q28.956263 219.26146 29.362513 219.26146Q29.768763 219.26146 30.065638 218.96458Q30.362513 218.66771 30.362513 218.19896Q30.362513 217.68333 30.018763 217.19896Q29.753138 216.85521 29.378138 216.74583Q29.143763 216.66771 28.440638 216.66771L28.065638 216.66771ZM31.550013 213.60521L27.815638 210.98021L24.284388 213.49583L24.284388 211.15208L26.284388 209.85521L24.284388 208.51146L24.284388 206.24583L27.721888 208.71458L31.550013 206.02708L31.550013 208.38646L29.300013 209.85521L31.550013 211.35521L31.550013 213.60521ZM31.550013 200.76146L21.534388 200.76146L21.534388 198.83958L25.143763 198.83958Q24.128138 197.94896 24.128138 196.73021Q24.128138 195.40208 25.096888 194.54271Q26.050013 193.66771 27.846888 193.66771Q29.706263 193.66771 30.721888 194.55833Q31.721888 195.44896 31.721888 196.69896Q31.721888 197.32396 31.409388 197.93333Q31.096888 198.54271 30.487513 198.98021L31.550013 198.98021L31.550013 200.76146ZM27.768763 198.85521Q28.893763 198.85521 29.425013 198.49583Q30.190638 197.99583 30.190638 197.16771Q30.190638 196.54271 29.659388 196.08958Q29.112513 195.63646 27.940638 195.63646Q26.690638 195.63646 26.143763 196.08958Q25.596888 196.54271 25.596888 197.24583Q25.596888 197.93333 26.143763 198.40208Q26.675013 198.85521 27.768763 198.85521ZM26.503138 190.24583L26.190638 191.98021Q25.143763 191.69896 24.643763 190.98021Q24.128138 190.26146 24.128138 188.83958Q24.128138 187.55833 24.440638 186.93333Q24.737513 186.29271 25.206263 186.04271Q25.675013 185.79271 26.925013 185.79271L29.159388 185.80833Q30.128138 185.80833 30.581263 185.71458Q31.034388 185.62083 31.550013 185.37083L31.550013 187.26146Q31.362513 187.33958 30.987513 187.44896Q30.815638 187.49583 30.753138 187.52708Q31.237513 188.01146 31.487513 188.57396Q31.721888 189.13646 31.721888 189.77708Q31.721888 190.88646 31.112513 191.54271Q30.503138 192.18333 29.565638 192.18333Q28.956263 192.18333 28.471888 191.88646Q27.987513 191.58958 27.737513 191.07396Q27.471888 190.54271 27.284388 189.54271Q27.034388 188.19896 26.815638 187.66771L26.628138 187.66771Q26.065638 187.66771 25.831263 187.94896Q25.596888 188.21458 25.596888 188.98021Q25.596888 189.49583 25.800013 189.77708Q26.003138 190.05833 26.503138 190.24583ZM28.065638 187.66771Q28.190638 188.04271 28.362513 188.83958Q28.534388 189.63646 28.690638 189.88646Q28.956263 190.26146 29.362513 190.26146Q29.768763 190.26146 30.065638 189.96458Q30.362513 189.66771 30.362513 189.19896Q30.362513 188.68333 30.018763 188.19896Q29.753138 187.85521 29.378138 187.74583Q29.143763 187.66771 28.440638 187.66771L28.065638 187.66771ZM24.284388 180.35521L25.815638 180.35521L25.815638 181.66771L28.753138 181.66771Q29.628138 181.66771 29.784388 181.63646Q29.925013 181.58958 30.034388 181.46458Q30.128138 181.32396 30.128138 181.12083Q30.128138 180.85521 29.940638 180.35521L31.425013 180.19896Q31.721888 180.85521 31.721888 181.71458Q31.721888 182.23021 31.550013 182.65208Q31.362513 183.05833 31.096888 183.26146Q30.815638 183.44896 30.346888 183.52708Q30.003138 183.58958 28.987513 183.58958L25.815638 183.58958L25.815638 184.46458L24.284388 184.46458L24.284388 183.58958L22.846888 183.58958L21.721888 181.66771L24.284388 181.66771L24.284388 180.35521ZM26.440638 172.35521L26.784388 174.24583Q26.206263 174.33958 25.925013 174.68333Q25.643763 175.01146 25.643763 175.55833Q25.643763 176.27708 26.143763 176.69896Q26.628138 177.12083 27.784388 177.12083Q29.081263 177.12083 29.612513 176.69896Q30.143763 176.26146 30.143763 175.52708Q30.143763 174.98021 29.831263 174.63646Q29.518763 174.27708 28.768763 174.13646L29.081263 172.24583Q30.393763 172.54271 31.065638 173.38646Q31.721888 174.21458 31.721888 175.62083Q31.721888 177.21458 30.721888 178.16771Q29.706263 179.10521 27.925013 179.10521Q26.128138 179.10521 25.128138 178.15208Q24.128138 177.19896 24.128138 175.57396Q24.128138 174.26146 24.706263 173.48021Q25.268763 172.68333 26.440638 172.35521ZM21.534388 168.76146L25.206263 168.76146Q24.128138 167.83958 24.128138 166.54271Q24.128138 165.88646 24.378138 165.35521Q24.612513 164.80833 25.003138 164.54271Q25.378138 164.27708 25.846888 164.18333Q26.315638 164.07396 27.284388 164.07396L31.550013 164.07396L31.550013 165.99583L27.721888 165.99583Q26.565638 165.99583 26.268763 166.10521Q25.956263 166.21458 25.784388 166.49583Q25.596888 166.76146 25.596888 167.18333Q25.596888 167.66771 25.831263 168.04271Q26.065638 168.41771 26.534388 168.58958Q27.003138 168.76146 27.909388 168.76146L31.550013 168.76146L31.550013 170.68333L21.534388 170.68333L21.534388 168.76146ZM28.878138 161.90208L26.956263 161.90208L26.956263 158.12083L28.878138 158.12083L28.878138 161.90208ZM29.471888 158.35521L29.190638 156.43333Q29.737513 156.30833 30.034388 155.93333Q30.331263 155.55833 30.331263 154.87083Q30.331263 154.13646 30.050013 153.76146Q29.862513 153.49583 29.534388 153.49583Q29.315638 153.49583 29.175013 153.63646Q29.034388 153.77708 28.925013 154.27708Q28.409388 156.60521 27.987513 157.23021Q27.393763 158.08958 26.346888 158.08958Q25.409388 158.08958 24.768763 157.35521Q24.128138 156.60521 24.128138 155.02708Q24.128138 153.54271 24.612513 152.82396Q25.096888 152.08958 26.050013 151.82396L26.378138 153.63646Q25.956263 153.74583 25.737513 154.07396Q25.503138 154.40208 25.503138 154.99583Q25.503138 155.76146 25.721888 156.08958Q25.862513 156.30833 26.112513 156.30833Q26.315638 156.30833 26.456263 156.10521Q26.643763 155.85521 27.003138 154.32396Q27.346888 152.77708 27.846888 152.16771Q28.362513 151.57396 29.284388 151.57396Q30.284388 151.57396 31.003138 152.41771Q31.721888 153.24583 31.721888 154.87083Q31.721888 156.35521 31.112513 157.23021Q30.503138 158.08958 29.471888 158.35521ZM23.300013 149.68333L21.534388 149.68333L21.534388 147.76146L23.300013 147.76146L23.300013 149.68333ZM31.550013 149.68333L24.284388 149.68333L24.284388 147.76146L31.550013 147.76146L31.550013 149.68333ZM31.550013 146.44896L30.050013 146.44896L26.925013 143.73021Q26.159388 143.05833 25.846888 142.74583Q25.862513 143.07396 25.862513 143.62083L25.878138 146.18333L24.284388 146.18333L24.284388 140.18333L25.643763 140.18333L28.846888 142.96458L29.909388 143.93333Q29.862513 143.13646 29.862513 142.94896L29.862513 139.96458L31.550013 139.96458L31.550013 146.44896ZM29.237513 134.48021L29.565638 132.55833Q30.612513 132.93333 31.175013 133.73021Q31.721888 134.52708 31.721888 135.71458Q31.721888 137.60521 30.471888 138.52708Q29.487513 139.24583 27.971888 139.24583Q26.175013 139.24583 25.159388 138.30833Q24.128138 137.35521 24.128138 135.90208Q24.128138 134.29271 25.206263 133.35521Q26.268763 132.41771 28.471888 132.46458L28.471888 137.27708Q29.331263 137.24583 29.815638 136.80833Q30.284388 136.35521 30.284388 135.69896Q30.284388 135.24583 30.034388 134.94896Q29.784388 134.63646 29.237513 134.48021ZM27.300013 134.37083Q26.456263 134.38646 26.034388 134.79271Q25.596888 135.19896 25.596888 135.79271Q25.596888 136.41771 26.050013 136.83958Q26.518763 137.24583 27.300013 137.23021L27.300013 134.37083Z" fill-rule="nonzero"/><path fill="#000000" d="M70.05 295.21564Q70.05 293.6844 70.3625 292.7625Q70.675 291.825 71.28438 291.325Q71.90938 290.825 72.84688 290.825Q73.53438 290.825 74.05 291.10626Q74.58125 291.3875 74.925 291.91876Q75.26875 292.4344 75.45625 293.1844Q75.64375 293.9344 75.64375 295.21564Q75.64375 296.73126 75.33125 297.65314Q75.03438 298.575 74.40938 299.09064Q73.8 299.59064 72.84688 299.59064Q71.6125 299.59064 70.89375 298.7Q70.05 297.6375 70.05 295.21564ZM71.12813 295.21564Q71.12813 297.325 71.62813 298.02814Q72.12813 298.73126 72.84688 298.73126Q73.58125 298.73126 74.06563 298.02814Q74.56563 297.325 74.56563 295.21564Q74.56563 293.09064 74.06563 292.40314Q73.58125 291.7 72.83125 291.7Q72.1125 291.7 71.675 292.3094Q71.12813 293.09064 71.12813 295.21564Z" fill-rule="nonzero"/><path fill="#000000" d="M63.05 249.49333L64.15938 249.39958Q64.28438 250.21208 64.72188 250.61833Q65.175 251.02458 65.81563 251.02458Q66.56563 251.02458 67.09688 250.44646Q67.62813 249.86833 67.62813 248.93083Q67.62813 248.02458 67.1125 247.50896Q66.6125 246.9777 65.78438 246.9777Q65.28438 246.9777 64.8625 247.21208Q64.45625 247.44646 64.22188 247.80583L63.2375 247.68083L64.06563 243.27458L68.34688 243.27458L68.34688 244.27458L64.90938 244.27458L64.45625 246.58708Q65.22188 246.0402 66.06563 246.0402Q67.19063 246.0402 67.95625 246.82146Q68.7375 247.6027 68.7375 248.83708Q68.7375 249.99333 68.06563 250.8527Q67.2375 251.88396 65.81563 251.88396Q64.64375 251.88396 63.89375 251.2277Q63.159374 250.57146 63.05 249.49333ZM70.05 247.50896Q70.05 245.9777 70.3625 245.05583Q70.675 244.11833 71.28438 243.61833Q71.90938 243.11833 72.84688 243.11833Q73.53438 243.11833 74.05 243.39958Q74.58125 243.68083 74.925 244.21208Q75.26875 244.7277 75.45625 245.4777Q75.64375 246.2277 75.64375 247.50896Q75.64375 249.02458 75.33125 249.94646Q75.03438 250.86833 74.40938 251.38396Q73.8 251.88396 72.84688 251.88396Q71.6125 251.88396 70.89375 250.99333Q70.05 249.93083 70.05 247.50896ZM71.12813 247.50896Q71.12813 249.61833 71.62813 250.32146Q72.12813 251.02458 72.84688 251.02458Q73.58125 251.02458 74.06563 250.32146Q74.56563 249.61833 74.56563 247.50896Q74.56563 245.38396 74.06563 244.69646Q73.58125 243.99333 72.83125 243.99333Q72.1125 243.99333 71.675 244.6027Q71.12813 245.38396 71.12813 247.50896Z" fill-rule="nonzero"/><path fill="#000000" d="M60.01875 204.03667L58.971874 204.03667L58.971874 197.31792Q58.58125 197.67729 57.95625 198.05229Q57.346874 198.41167 56.8625 198.58354L56.8625 197.56792Q57.7375 197.14604 58.39375 196.56792Q59.065624 195.97417 59.346874 195.41167L60.01875 195.41167L60.01875 204.03667ZM63.05 199.80229Q63.05 198.27104 63.3625 197.34917Q63.675 196.41167 64.28438 195.91167Q64.90938 195.41167 65.84688 195.41167Q66.53438 195.41167 67.05 195.69292Q67.58125 195.97417 67.925 196.50542Q68.26875 197.02104 68.45625 197.77104Q68.64375 198.52104 68.64375 199.80229Q68.64375 201.31792 68.33125 202.23979Q68.03438 203.16167 67.40938 203.67729Q66.8 204.17729 65.84688 204.17729Q64.6125 204.17729 63.89375 203.28667Q63.05 202.22417 63.05 199.80229ZM64.12813 199.80229Q64.12813 201.91167 64.62813 202.61479Q65.12813 203.31792 65.84688 203.31792Q66.58125 203.31792 67.06563 202.61479Q67.56563 201.91167 67.56563 199.80229Q67.56563 197.67729 67.06563 196.98979Q66.58125 196.28667 65.83125 196.28667Q65.1125 196.28667 64.675 196.89604Q64.12813 197.67729 64.12813 199.80229ZM70.05 199.80229Q70.05 198.27104 70.3625 197.34917Q70.675 196.41167 71.28438 195.91167Q71.90938 195.41167 72.84688 195.41167Q73.53438 195.41167 74.05 195.69292Q74.58125 195.97417 74.925 196.50542Q75.26875 197.02104 75.45625 197.77104Q75.64375 198.52104 75.64375 199.80229Q75.64375 201.31792 75.33125 202.23979Q75.03438 203.16167 74.40938 203.67729Q73.8 204.17729 72.84688 204.17729Q71.6125 204.17729 70.89375 203.28667Q70.05 202.22417 70.05 199.80229ZM71.12813 199.80229Q71.12813 201.91167 71.62813 202.61479Q72.12813 203.31792 72.84688 203.31792Q73.58125 203.31792 74.06563 202.61479Q74.56563 201.91167 74.56563 199.80229Q74.56563 197.67729 74.06563 196.98979Q73.58125 196.28667 72.83125 196.28667Q72.1125 196.28667 71.675 196.89604Q71.12813 197.67729 71.12813 199.80229Z" fill-rule="nonzero"/><path fill="#000000" d="M60.01875 156.33L58.971874 156.33L58.971874 149.61125Q58.58125 149.97063 57.95625 150.34563Q57.346874 150.705 56.8625 150.87688L56.8625 149.86125Q57.7375 149.43938 58.39375 148.86125Q59.065624 148.2675 59.346874 147.705L60.01875 147.705L60.01875 156.33ZM63.05 154.08L64.15938 153.98625Q64.28438 154.79875 64.72188 155.205Q65.175 155.61125 65.81563 155.61125Q66.56563 155.61125 67.09688 155.03313Q67.62813 154.455 67.62813 153.5175Q67.62813 152.61125 67.1125 152.09563Q66.6125 151.56438 65.78438 151.56438Q65.28438 151.56438 64.8625 151.79875Q64.45625 152.03313 64.22188 152.3925L63.2375 152.2675L64.06563 147.86125L68.34688 147.86125L68.34688 148.86125L64.90938 148.86125L64.45625 151.17375Q65.22188 150.62688 66.06563 150.62688Q67.19063 150.62688 67.95625 151.40813Q68.7375 152.18938 68.7375 153.42375Q68.7375 154.58 68.06563 155.43938Q67.2375 156.47063 65.81563 156.47063Q64.64375 156.47063 63.89375 155.81438Q63.159374 155.15813 63.05 154.08ZM70.05 152.09563Q70.05 150.56438 70.3625 149.6425Q70.675 148.705 71.28438 148.205Q71.90938 147.705 72.84688 147.705Q73.53438 147.705 74.05 147.98625Q74.58125 148.2675 74.925 148.79875Q75.26875 149.31438 75.45625 150.06438Q75.64375 150.81438 75.64375 152.09563Q75.64375 153.61125 75.33125 154.53313Q75.03438 155.455 74.40938 155.97063Q73.8 156.47063 72.84688 156.47063Q71.6125 156.47063 70.89375 155.58Q70.05 154.5175 70.05 152.09563ZM71.12813 152.09563Q71.12813 154.205 71.62813 154.90813Q72.12813 155.61125 72.84688 155.61125Q73.58125 155.61125 74.06563 154.90813Q74.56563 154.205 74.56563 152.09563Q74.56563 149.97063 74.06563 149.28313Q73.58125 148.58 72.83125 148.58Q72.1125 148.58 71.675 149.18938Q71.12813 149.97063 71.12813 152.09563Z" fill-rule="nonzero"/><path fill="#000000" d="M61.596874 107.60771L61.596874 108.62334L55.909374 108.62334Q55.909374 108.24834 56.034374 107.88896Q56.253124 107.31084 56.721874 106.74834Q57.20625 106.18584 58.1125 105.45146Q59.51875 104.29521 60.003124 103.62334Q60.503124 102.95146 60.503124 102.35771Q60.503124 101.73271 60.05 101.31084Q59.596874 100.87334 58.878124 100.87334Q58.1125 100.87334 57.659374 101.32646Q57.20625 101.77959 57.190624 102.59209L56.1125 102.48271Q56.221874 101.26396 56.940624 100.63896Q57.675 99.99834 58.909374 99.99834Q60.14375 99.99834 60.8625 100.68584Q61.58125 101.37334 61.58125 102.38896Q61.58125 102.90459 61.3625 103.40459Q61.159374 103.88896 60.659374 104.45146Q60.175 104.99834 59.05 105.95146Q58.096874 106.74834 57.815624 107.04521Q57.55 107.32646 57.378124 107.60771L61.596874 107.60771ZM63.05 104.38896Q63.05 102.85771 63.3625 101.93584Q63.675 100.99834 64.28438 100.49834Q64.90938 99.99834 65.84688 99.99834Q66.53438 99.99834 67.05 100.27959Q67.58125 100.56084 67.925 101.09209Q68.26875 101.60771 68.45625 102.35771Q68.64375 103.10771 68.64375 104.38896Q68.64375 105.90459 68.33125 106.82646Q68.03438 107.74834 67.40938 108.26396Q66.8 108.76396 65.84688 108.76396Q64.6125 108.76396 63.89375 107.87334Q63.05 106.81084 63.05 104.38896ZM64.12813 104.38896Q64.12813 106.49834 64.62813 107.20146Q65.12813 107.90459 65.84688 107.90459Q66.58125 107.90459 67.06563 107.20146Q67.56563 106.49834 67.56563 104.38896Q67.56563 102.26396 67.06563 101.57646Q66.58125 100.87334 65.83125 100.87334Q65.1125 100.87334 64.675 101.48271Q64.12813 102.26396 64.12813 104.38896ZM70.05 104.38896Q70.05 102.85771 70.3625 101.93584Q70.675 100.99834 71.28438 100.49834Q71.90938 99.99834 72.84688 99.99834Q73.53438 99.99834 74.05 100.27959Q74.58125 100.56084 74.925 101.09209Q75.26875 101.60771 75.45625 102.35771Q75.64375 103.10771 75.64375 104.38896Q75.64375 105.90459 75.33125 106.82646Q75.03438 107.74834 74.40938 108.26396Q73.8 108.76396 72.84688 108.76396Q71.6125 108.76396 70.89375 107.87334Q70.05 106.81084 70.05 104.38896ZM71.12813 104.38896Q71.12813 106.49834 71.62813 107.20146Q72.12813 107.90459 72.84688 107.90459Q73.58125 107.90459 74.06563 107.20146Q74.56563 106.49834 74.56563 104.38896Q74.56563 102.26396 74.06563 101.57646Q73.58125 100.87334 72.83125 100.87334Q72.1125 100.87334 71.675 101.48271Q71.12813 102.26396 71.12813 104.38896Z" fill-rule="nonzero"/><path fill="#000000" d="M61.596874 59.901043L61.596874 60.916668L55.909374 60.916668Q55.909374 60.541668 56.034374 60.182293Q56.253124 59.604168 56.721874 59.041668Q57.20625 58.479168 58.1125 57.744793Q59.51875 56.588543 60.003124 55.916668Q60.503124 55.244793 60.503124 54.651043Q60.503124 54.026043 60.05 53.604168Q59.596874 53.166668 58.878124 53.166668Q58.1125 53.166668 57.659374 53.619793Q57.20625 54.072918 57.190624 54.885418L56.1125 54.776043Q56.221874 53.557293 56.940624 52.932293Q57.675 52.291668 58.909374 52.291668Q60.14375 52.291668 60.8625 52.979168Q61.58125 53.666668 61.58125 54.682293Q61.58125 55.197918 61.3625 55.697918Q61.159374 56.182293 60.659374 56.744793Q60.175 57.291668 59.05 58.244793Q58.096874 59.041668 57.815624 59.338543Q57.55 59.619793 57.378124 59.901043L61.596874 59.901043ZM63.05 58.666668L64.15938 58.572918Q64.28438 59.385418 64.72188 59.791668Q65.175 60.197918 65.81563 60.197918Q66.56563 60.197918 67.09688 59.619793Q67.62813 59.041668 67.62813 58.104168Q67.62813 57.197918 67.1125 56.682293Q66.6125 56.151043 65.78438 56.151043Q65.28438 56.151043 64.8625 56.385418Q64.45625 56.619793 64.22188 56.979168L63.2375 56.854168L64.06563 52.447918L68.34688 52.447918L68.34688 53.447918L64.90938 53.447918L64.45625 55.760418Q65.22188 55.213543 66.06563 55.213543Q67.19063 55.213543 67.95625 55.994793Q68.7375 56.776043 68.7375 58.010418Q68.7375 59.166668 68.06563 60.026043Q67.2375 61.057293 65.81563 61.057293Q64.64375 61.057293 63.89375 60.401043Q63.159374 59.744793 63.05 58.666668ZM70.05 56.682293Q70.05 55.151043 70.3625 54.229168Q70.675 53.291668 71.28438 52.791668Q71.90938 52.291668 72.84688 52.291668Q73.53438 52.291668 74.05 52.572918Q74.58125 52.854168 74.925 53.385418Q75.26875 53.901043 75.45625 54.651043Q75.64375 55.401043 75.64375 56.682293Q75.64375 58.197918 75.33125 59.119793Q75.03438 60.041668 74.40938 60.557293Q73.8 61.057293 72.84688 61.057293Q71.6125 61.057293 70.89375 60.166668Q70.05 59.104168 70.05 56.682293ZM71.12813 56.682293Q71.12813 58.791668 71.62813 59.494793Q72.12813 60.197918 72.84688 60.197918Q73.58125 60.197918 74.06563 59.494793Q74.56563 58.791668 74.56563 56.682293Q74.56563 54.557293 74.06563 53.869793Q73.58125 53.166668 72.83125 53.166668Q72.1125 53.166668 71.675 53.776043Q71.12813 54.557293 71.12813 56.682293Z" fill-rule="nonzero"/><path fill="#000000" d="M146.09772 312.45L145.05084 312.45L145.05084 305.73126Q144.66022 306.09064 144.03522 306.46564Q143.42584 306.825 142.94147 306.9969L142.94147 305.98126Q143.81647 305.5594 144.47272 304.98126Q145.14459 304.3875 145.42584 303.825L146.09772 303.825L146.09772 312.45ZM154.67584 311.4344L154.67584 312.45L148.98834 312.45Q148.98834 312.075 149.11334 311.71564Q149.33209 311.1375 149.80084 310.575Q150.28522 310.0125 151.19147 309.27814Q152.59772 308.1219 153.08209 307.45Q153.58209 306.77814 153.58209 306.1844Q153.58209 305.5594 153.12897 305.1375Q152.67584 304.7 151.95709 304.7Q151.19147 304.7 150.73834 305.15314Q150.28522 305.60626 150.26959 306.41876L149.19147 306.3094Q149.30084 305.09064 150.01959 304.46564Q150.75397 303.825 151.98834 303.825Q153.22272 303.825 153.94147 304.5125Q154.66022 305.2 154.66022 306.21564Q154.66022 306.73126 154.44147 307.23126Q154.23834 307.71564 153.73834 308.27814Q153.25397 308.825 152.12897 309.77814Q151.17584 310.575 150.89459 310.8719Q150.62897 311.15314 150.45709 311.4344L154.67584 311.4344ZM159.50397 312.45L159.50397 310.3875L155.78522 310.3875L155.78522 309.41876L159.70709 303.85626L160.56647 303.85626L160.56647 309.41876L161.72272 309.41876L161.72272 310.3875L160.56647 310.3875L160.56647 312.45L159.50397 312.45ZM159.50397 309.41876L159.50397 305.5594L156.81647 309.41876L159.50397 309.41876Z" fill-rule="nonzero"/><path fill="#000000" d="M236.32002 310.1844L237.38252 310.04376Q237.5544 310.9344 237.9919 311.34064Q238.4294 311.73126 239.0544 311.73126Q239.8044 311.73126 240.32002 311.21564Q240.83565 310.7 240.83565 309.9344Q240.83565 309.21564 240.35127 308.7469Q239.88252 308.2625 239.14815 308.2625Q238.85127 308.2625 238.39815 308.3875L238.52315 307.45Q238.63252 307.46564 238.69502 307.46564Q239.3669 307.46564 239.89815 307.1219Q240.44502 306.7625 240.44502 306.02814Q240.44502 305.45 240.0544 305.075Q239.66377 304.6844 239.03877 304.6844Q238.4294 304.6844 238.00752 305.075Q237.60127 305.46564 237.4919 306.23126L236.4294 306.04376Q236.6169 304.9969 237.3044 304.41876Q237.9919 303.825 239.00752 303.825Q239.71065 303.825 240.3044 304.1375Q240.89815 304.4344 241.21065 304.95Q241.52315 305.46564 241.52315 306.0594Q241.52315 306.60626 241.22627 307.075Q240.9294 307.52814 240.35127 307.79376Q241.10127 307.96564 241.52315 308.52814Q241.94502 309.075 241.94502 309.91876Q241.94502 311.04376 241.1169 311.825Q240.3044 312.60626 239.0544 312.60626Q237.9294 312.60626 237.1794 311.9344Q236.4294 311.2469 236.32002 310.1844ZM243.32002 310.2L244.4294 310.10626Q244.5544 310.91876 244.9919 311.325Q245.44502 311.73126 246.08565 311.73126Q246.83565 311.73126 247.3669 311.15314Q247.89815 310.575 247.89815 309.6375Q247.89815 308.73126 247.38252 308.21564Q246.88252 307.6844 246.0544 307.6844Q245.5544 307.6844 245.13252 307.91876Q244.72627 308.15314 244.4919 308.5125L243.50752 308.3875L244.33565 303.98126L248.6169 303.98126L248.6169 304.98126L245.1794 304.98126L244.72627 307.29376Q245.4919 306.7469 246.33565 306.7469Q247.46065 306.7469 248.22627 307.52814Q249.00752 308.3094 249.00752 309.54376Q249.00752 310.7 248.33565 311.5594Q247.50752 312.59064 246.08565 312.59064Q244.91377 312.59064 244.16377 311.9344Q243.4294 311.27814 243.32002 310.2ZM253.69502 312.45L253.69502 310.3875L249.97627 310.3875L249.97627 309.41876L253.89815 303.85626L254.75752 303.85626L254.75752 309.41876L255.91377 309.41876L255.91377 310.3875L254.75752 310.3875L254.75752 312.45L253.69502 312.45ZM253.69502 309.41876L253.69502 305.5594L251.00752 309.41876L253.69502 309.41876Z" fill-rule="nonzero"/><path fill="#000000" d="M330.57358 304.98126L330.57358 303.96564L336.13608 303.96564L336.13608 304.79376Q335.32358 305.66876 334.51108 307.1219Q333.7142 308.5594 333.2767 310.09064Q332.94858 311.16876 332.87045 312.45L331.7767 312.45Q331.79233 311.4344 332.16733 309.9969Q332.55795 308.5594 333.26108 307.23126Q333.97983 305.90314 334.79233 304.98126L330.57358 304.98126ZM337.57358 304.98126L337.57358 303.96564L343.13608 303.96564L343.13608 304.79376Q342.32358 305.66876 341.51108 307.1219Q340.7142 308.5594 340.2767 310.09064Q339.94858 311.16876 339.87045 312.45L338.7767 312.45Q338.79233 311.4344 339.16733 309.9969Q339.55795 308.5594 340.26108 307.23126Q340.97983 305.90314 341.79233 304.98126L337.57358 304.98126ZM344.51108 310.1844L345.57358 310.04376Q345.74545 310.9344 346.18295 311.34064Q346.62045 311.73126 347.24545 311.73126Q347.99545 311.73126 348.51108 311.21564Q349.0267 310.7 349.0267 309.9344Q349.0267 309.21564 348.54233 308.7469Q348.07358 308.2625 347.3392 308.2625Q347.04233 308.2625 346.5892 308.3875L346.7142 307.45Q346.82358 307.46564 346.88608 307.46564Q347.55795 307.46564 348.0892 307.1219Q348.63608 306.7625 348.63608 306.02814Q348.63608 305.45 348.24545 305.075Q347.85483 304.6844 347.22983 304.6844Q346.62045 304.6844 346.19858 305.075Q345.79233 305.46564 345.68295 306.23126L344.62045 306.04376Q344.80795 304.9969 345.49545 304.41876Q346.18295 303.825 347.19858 303.825Q347.9017 303.825 348.49545 304.1375Q349.0892 304.4344 349.4017 304.95Q349.7142 305.46564 349.7142 306.0594Q349.7142 306.60626 349.41733 307.075Q349.12045 307.52814 348.54233 307.79376Q349.29233 307.96564 349.7142 308.52814Q350.13608 309.075 350.13608 309.91876Q350.13608 311.04376 349.30795 311.825Q348.49545 312.60626 347.24545 312.60626Q346.12045 312.60626 345.37045 311.9344Q344.62045 311.2469 344.51108 310.1844Z" fill-rule="nonzero"/><path fill="#000000" d="M425.1709 312.45L424.12402 312.45L424.12402 305.73126Q423.7334 306.09064 423.1084 306.46564Q422.49902 306.825 422.01465 306.9969L422.01465 305.98126Q422.88965 305.5594 423.5459 304.98126Q424.21777 304.3875 424.49902 303.825L425.1709 303.825L425.1709 312.45ZM428.20215 310.2L429.31152 310.10626Q429.43652 310.91876 429.87402 311.325Q430.32715 311.73126 430.96777 311.73126Q431.71777 311.73126 432.24902 311.15314Q432.78027 310.575 432.78027 309.6375Q432.78027 308.73126 432.26465 308.21564Q431.76465 307.6844 430.93652 307.6844Q430.43652 307.6844 430.01465 307.91876Q429.6084 308.15314 429.37402 308.5125L428.38965 308.3875L429.21777 303.98126L433.49902 303.98126L433.49902 304.98126L430.06152 304.98126L429.6084 307.29376Q430.37402 306.7469 431.21777 306.7469Q432.34277 306.7469 433.1084 307.52814Q433.88965 308.3094 433.88965 309.54376Q433.88965 310.7 433.21777 311.5594Q432.38965 312.59064 430.96777 312.59064Q429.7959 312.59064 429.0459 311.9344Q428.31152 311.27814 428.20215 310.2ZM435.20215 310.2L436.31152 310.10626Q436.43652 310.91876 436.87402 311.325Q437.32715 311.73126 437.96777 311.73126Q438.71777 311.73126 439.24902 311.15314Q439.78027 310.575 439.78027 309.6375Q439.78027 308.73126 439.26465 308.21564Q438.76465 307.6844 437.93652 307.6844Q437.43652 307.6844 437.01465 307.91876Q436.6084 308.15314 436.37402 308.5125L435.38965 308.3875L436.21777 303.98126L440.49902 303.98126L440.49902 304.98126L437.06152 304.98126L436.6084 307.29376Q437.37402 306.7469 438.21777 306.7469Q439.34277 306.7469 440.1084 307.52814Q440.88965 308.3094 440.88965 309.54376Q440.88965 310.7 440.21777 311.5594Q439.38965 312.59064 437.96777 312.59064Q436.7959 312.59064 436.0459 311.9344Q435.31152 311.27814 435.20215 310.2ZM447.6709 305.96564L446.62402 306.04376Q446.4834 305.41876 446.2334 305.1375Q445.7959 304.6844 445.1709 304.6844Q444.6709 304.6844 444.28027 304.96564Q443.7959 305.34064 443.49902 306.04376Q443.21777 306.73126 443.20215 308.0125Q443.57715 307.4344 444.12402 307.15314Q444.68652 306.8719 445.2959 306.8719Q446.34277 306.8719 447.07715 307.65314Q447.82715 308.4344 447.82715 309.65314Q447.82715 310.46564 447.46777 311.16876Q447.12402 311.85626 446.51465 312.23126Q445.90527 312.59064 445.13965 312.59064Q443.81152 312.59064 442.9834 311.6219Q442.15527 310.65314 442.15527 308.4344Q442.15527 305.9344 443.07715 304.8094Q443.87402 303.825 445.2334 303.825Q446.24902 303.825 446.88965 304.40314Q447.5459 304.96564 447.6709 305.96564ZM443.37402 309.66876Q443.37402 310.21564 443.59277 310.71564Q443.82715 311.2 444.2334 311.46564Q444.65527 311.73126 445.12402 311.73126Q445.78027 311.73126 446.26465 311.2Q446.74902 310.65314 446.74902 309.73126Q446.74902 308.84064 446.26465 308.325Q445.7959 307.8094 445.07715 307.8094Q444.3584 307.8094 443.8584 308.325Q443.37402 308.84064 443.37402 309.66876Z" fill-rule="nonzero"/><path fill="#4285f4" d="M518.45 51.916668C518.45 51.364384 518.8977 50.916668 519.45 50.916668L529.45 50.916668C530.00226 50.916668 530.45 51.364384 530.45 51.916668L530.45 61.916668C530.45 62.468952 530.00226 62.916668 529.45 62.916668L519.45 62.916668C518.8977 62.916668 518.45 62.468952 518.45 61.916668Z" fill-rule="nonzero"/><path fill="#1a1a1a" d="M539.3719 60.916668L539.3719 52.322918L542.34064 52.322918Q543.34064 52.322918 543.8719 52.447918Q544.60626 52.619793 545.1219 53.057293Q545.8094 53.635418 546.1375 54.541668Q546.48126 55.432293 546.48126 56.572918Q546.48126 57.557293 546.2469 58.307293Q546.02814 59.057293 545.66876 59.557293Q545.3094 60.057293 544.8719 60.338543Q544.45 60.619793 543.85626 60.776043Q543.2625 60.916668 542.48126 60.916668L539.3719 60.916668ZM540.5125 59.901043L542.34064 59.901043Q543.2 59.901043 543.6844 59.744793Q544.16876 59.588543 544.45 59.291668Q544.85626 58.901043 545.075 58.213543Q545.3094 57.526043 545.3094 56.557293Q545.3094 55.213543 544.85626 54.494793Q544.41876 53.760418 543.79376 53.510418Q543.325 53.338543 542.325 53.338543L540.5125 53.338543L540.5125 59.901043ZM548.3719 60.916668L548.3719 52.322918L551.6219 52.322918Q552.46564 52.322918 552.91876 52.401043Q553.5594 52.510418 553.98126 52.807293Q554.41876 53.104168 554.66876 53.635418Q554.9344 54.166668 554.9344 54.807293Q554.9344 55.901043 554.23126 56.666668Q553.54376 57.416668 551.71564 57.416668L549.5125 57.416668L549.5125 60.916668L548.3719 60.916668ZM549.5125 56.416668L551.73126 56.416668Q552.84064 56.416668 553.29376 56.010418Q553.7625 55.588543 553.7625 54.838543Q553.7625 54.307293 553.48126 53.932293Q553.21564 53.541668 552.77814 53.416668Q552.48126 53.338543 551.71564 53.338543L549.5125 53.338543L549.5125 56.416668ZM556.3719 60.916668L556.3719 52.322918L559.34064 52.322918Q560.34064 52.322918 560.8719 52.447918Q561.60626 52.619793 562.1219 53.057293Q562.8094 53.635418 563.1375 54.541668Q563.48126 55.432293 563.48126 56.572918Q563.48126 57.557293 563.2469 58.307293Q563.02814 59.057293 562.66876 59.557293Q562.3094 60.057293 561.8719 60.338543Q561.45 60.619793 560.85626 60.776043Q560.2625 60.916668 559.48126 60.916668L556.3719 60.916668ZM557.5125 59.901043L559.34064 59.901043Q560.2 59.901043 560.6844 59.744793Q561.16876 59.588543 561.45 59.291668Q561.85626 58.901043 562.075 58.213543Q562.3094 57.526043 562.3094 56.557293Q562.3094 55.213543 561.85626 54.494793Q561.41876 53.760418 560.79376 53.510418Q560.325 53.338543 559.325 53.338543L557.5125 53.338543L557.5125 59.901043ZM565.3719 60.916668L565.3719 52.322918L568.34064 52.322918Q569.34064 52.322918 569.8719 52.447918Q570.60626 52.619793 571.1219 53.057293Q571.8094 53.635418 572.1375 54.541668Q572.48126 55.432293 572.48126 56.572918Q572.48126 57.557293 572.2469 58.307293Q572.02814 59.057293 571.66876 59.557293Q571.3094 60.057293 570.8719 60.338543Q570.45 60.619793 569.85626 60.776043Q569.2625 60.916668 568.48126 60.916668L565.3719 60.916668ZM566.5125 59.901043L568.34064 59.901043Q569.2 59.901043 569.6844 59.744793Q570.16876 59.588543 570.45 59.291668Q570.85626 58.901043 571.075 58.213543Q571.3094 57.526043 571.3094 56.557293Q571.3094 55.213543 570.85626 54.494793Q570.41876 53.760418 569.79376 53.510418Q569.325 53.338543 568.325 53.338543L566.5125 53.338543L566.5125 59.901043ZM574.3719 60.916668L574.3719 52.322918L577.6219 52.322918Q578.46564 52.322918 578.91876 52.401043Q579.5594 52.510418 579.98126 52.807293Q580.41876 53.104168 580.66876 53.635418Q580.9344 54.166668 580.9344 54.807293Q580.9344 55.901043 580.23126 56.666668Q579.54376 57.416668 577.71564 57.416668L575.5125 57.416668L575.5125 60.916668L574.3719 60.916668ZM575.5125 56.416668L577.73126 56.416668Q578.84064 56.416668 579.29376 56.010418Q579.7625 55.588543 579.7625 54.838543Q579.7625 54.307293 579.48126 53.932293Q579.21564 53.541668 578.77814 53.416668Q578.48126 53.338543 577.71564 53.338543L575.5125 53.338543L575.5125 56.416668Z" fill-rule="nonzero"/><path fill="#ea4335" d="M518.45 75.916664C518.45 75.36438 518.8977 74.916664 519.45 74.916664L529.45 74.916664C530.00226 74.916664 530.45 75.36438 530.45 75.916664L530.45 85.916664C530.45 86.46895 530.00226 86.916664 529.45 86.916664L519.45 86.916664C518.8977 86.916664 518.45 86.46895 518.45 85.916664Z" fill-rule="nonzero"/><path fill="#1a1a1a" d="M539.4344 84.916664L539.4344 76.322914L545.23126 76.322914L545.23126 77.33854L540.575 77.33854L540.575 79.99479L544.60626 79.99479L544.60626 81.010414L540.575 81.010414L540.575 84.916664L539.4344 84.916664ZM545.9969 82.15104L547.0594 82.05729Q547.1375 82.71354 547.41876 83.11979Q547.7 83.52604 548.27814 83.791664Q548.8719 84.041664 549.60626 84.041664Q550.2469 84.041664 550.7469 83.854164Q551.2469 83.65104 551.48126 83.322914Q551.73126 82.979164 551.73126 82.58854Q551.73126 82.18229 551.4969 81.885414Q551.2625 81.572914 550.73126 81.36979Q550.3719 81.229164 549.1844 80.947914Q548.0125 80.666664 547.54376 80.416664Q546.91876 80.08854 546.6219 79.61979Q546.325 79.135414 546.325 78.541664Q546.325 77.90104 546.6844 77.33854Q547.0594 76.760414 547.7625 76.479164Q548.48126 76.18229 549.34064 76.18229Q550.29376 76.18229 551.02814 76.49479Q551.7625 76.791664 552.15314 77.40104Q552.54376 77.99479 552.575 78.74479L551.48126 78.822914Q551.3875 78.010414 550.8719 77.604164Q550.3719 77.18229 549.3875 77.18229Q548.35626 77.18229 547.8875 77.55729Q547.41876 77.93229 547.41876 78.46354Q547.41876 78.93229 547.7469 79.229164Q548.075 79.52604 549.45 79.83854Q550.84064 80.15104 551.35626 80.385414Q552.10626 80.74479 552.46564 81.27604Q552.825 81.791664 552.825 82.49479Q552.825 83.18229 552.4344 83.791664Q552.04376 84.385414 551.3094 84.729164Q550.575 85.05729 549.65314 85.05729Q548.48126 85.05729 547.6844 84.729164Q546.90314 84.385414 546.45 83.697914Q546.0125 83.010414 545.9969 82.15104ZM554.3719 84.916664L554.3719 76.322914L557.34064 76.322914Q558.34064 76.322914 558.8719 76.447914Q559.60626 76.61979 560.1219 77.05729Q560.8094 77.635414 561.1375 78.541664Q561.48126 79.43229 561.48126 80.572914Q561.48126 81.55729 561.2469 82.30729Q561.02814 83.05729 560.66876 83.55729Q560.3094 84.05729 559.8719 84.33854Q559.45 84.61979 558.85626 84.77604Q558.2625 84.916664 557.48126 84.916664L554.3719 84.916664ZM555.5125 83.90104L557.34064 83.90104Q558.2 83.90104 558.6844 83.74479Q559.16876 83.58854 559.45 83.291664Q559.85626 82.90104 560.075 82.21354Q560.3094 81.52604 560.3094 80.55729Q560.3094 79.21354 559.85626 78.49479Q559.41876 77.760414 558.79376 77.510414Q558.325 77.33854 557.325 77.33854L555.5125 77.33854L555.5125 83.90104ZM563.3719 84.916664L563.3719 76.322914L566.6219 76.322914Q567.46564 76.322914 567.91876 76.40104Q568.5594 76.510414 568.98126 76.80729Q569.41876 77.104164 569.66876 77.635414Q569.9344 78.166664 569.9344 78.80729Q569.9344 79.90104 569.23126 80.666664Q568.54376 81.416664 566.71564 81.416664L564.5125 81.416664L564.5125 84.916664L563.3719 84.916664ZM564.5125 80.416664L566.73126 80.416664Q567.84064 80.416664 568.29376 80.010414Q568.7625 79.58854 568.7625 78.83854Q568.7625 78.30729 568.48126 77.93229Q568.21564 77.541664 567.77814 77.416664Q567.48126 77.33854 566.71564 77.33854L564.5125 77.33854L564.5125 80.416664ZM576.4969 83.90104L576.4969 84.916664L570.8094 84.916664Q570.8094 84.541664 570.9344 84.18229Q571.15314 83.604164 571.6219 83.041664Q572.10626 82.479164 573.0125 81.74479Q574.41876 80.58854 574.90314 79.916664Q575.40314 79.24479 575.40314 78.65104Q575.40314 78.02604 574.95 77.604164Q574.4969 77.166664 573.77814 77.166664Q573.0125 77.166664 572.5594 77.61979Q572.10626 78.072914 572.09064 78.885414L571.0125 78.77604Q571.1219 77.55729 571.84064 76.93229Q572.575 76.291664 573.8094 76.291664Q575.04376 76.291664 575.7625 76.979164Q576.48126 77.666664 576.48126 78.68229Q576.48126 79.197914 576.2625 79.697914Q576.0594 80.18229 575.5594 80.74479Q575.075 81.291664 573.95 82.24479Q572.9969 83.041664 572.71564 83.33854Q572.45 83.61979 572.27814 83.90104L576.4969 83.90104Z" fill-rule="nonzero"/><path fill="#000000" d="M59.140625 33.55L59.140625 22.096874L62.59375 22.096874L64.671875 29.909374L66.734375 22.096874L70.203125 22.096874L70.203125 33.55L68.046875 33.55L68.046875 24.534374L65.78125 33.55L63.546875 33.55L61.28125 24.534374L61.28125 33.55L59.140625 33.55ZM73.796875 27.784374L71.796875 27.425Q72.140625 26.221874 72.953125 25.64375Q73.78125 25.065624 75.390625 25.065624Q76.859375 25.065624 77.578125 25.409374Q78.296875 25.753124 78.59375 26.3Q78.890625 26.83125 78.890625 28.253124L78.859375 30.815624Q78.859375 31.909374 78.96875 32.440624Q79.078125 32.95625 79.359375 33.55L77.1875 33.55Q77.109375 33.33125 76.984375 32.89375Q76.921875 32.70625 76.90625 32.64375Q76.34375 33.190624 75.703125 33.471874Q75.0625 33.7375 74.328125 33.7375Q73.046875 33.7375 72.3125 33.05Q71.578125 32.346874 71.578125 31.284374Q71.578125 30.58125 71.90625 30.034374Q72.25 29.471874 72.84375 29.190624Q73.453125 28.89375 74.59375 28.675Q76.140625 28.378124 76.734375 28.128124L76.734375 27.909374Q76.734375 27.284374 76.421875 27.01875Q76.109375 26.7375 75.234375 26.7375Q74.65625 26.7375 74.328125 26.971874Q74.0 27.20625 73.796875 27.784374ZM76.734375 29.565624Q76.3125 29.70625 75.390625 29.909374Q74.484375 30.096874 74.203125 30.284374Q73.765625 30.58125 73.765625 31.05Q73.765625 31.51875 74.109375 31.8625Q74.453125 32.190624 74.984375 32.190624Q75.578125 32.190624 76.125 31.8Q76.515625 31.503124 76.640625 31.065624Q76.734375 30.784374 76.734375 30.003124L76.734375 29.565624ZM80.09375 33.55L83.09375 29.26875L80.21875 25.253124L82.90625 25.253124L84.375 27.534374L85.921875 25.253124L88.5 25.253124L85.6875 29.175L88.75 33.55L86.0625 33.55L84.375 30.971874L82.671875 33.55L80.09375 33.55ZM90.15625 24.128124L90.15625 22.096874L92.34375 22.096874L92.34375 24.128124L90.15625 24.128124ZM90.15625 33.55L90.15625 25.253124L92.34375 25.253124L92.34375 33.55L90.15625 33.55ZM93.984375 25.253124L96.015625 25.253124L96.015625 26.378124Q97.09375 25.065624 98.59375 25.065624Q99.390625 25.065624 99.96875 25.39375Q100.5625 25.721874 100.9375 26.378124Q101.484375 25.721874 102.109375 25.39375Q102.75 25.065624 103.46875 25.065624Q104.390625 25.065624 105.015625 25.440624Q105.65625 25.8 105.96875 26.51875Q106.1875 27.05 106.1875 28.2375L106.1875 33.55L104.0 33.55L104.0 28.8Q104.0 27.565624 103.765625 27.20625Q103.46875 26.7375 102.828125 26.7375Q102.375 26.7375 101.96875 27.01875Q101.5625 27.3 101.375 27.846874Q101.203125 28.39375 101.203125 29.565624L101.203125 33.55L99.0 33.55L99.0 29.003124Q99.0 27.784374 98.875 27.440624Q98.765625 27.08125 98.515625 26.909374Q98.28125 26.7375 97.859375 26.7375Q97.34375 26.7375 96.9375 27.01875Q96.53125 27.284374 96.359375 27.8Q96.1875 28.315624 96.1875 29.51875L96.1875 33.55L93.984375 33.55L93.984375 25.253124ZM113.609375 33.55L113.609375 32.3Q113.15625 32.971874 112.421875 33.3625Q111.6875 33.7375 110.859375 33.7375Q110.03125 33.7375 109.359375 33.378124Q108.703125 33.003124 108.40625 32.346874Q108.109375 31.675 108.109375 30.503124L108.109375 25.253124L110.296875 25.253124L110.296875 29.065624Q110.296875 30.815624 110.421875 31.20625Q110.546875 31.596874 110.859375 31.83125Q111.1875 32.065624 111.671875 32.065624Q112.234375 32.065624 112.671875 31.753124Q113.125 31.440624 113.28125 30.9875Q113.453125 30.534374 113.453125 28.753124L113.453125 25.253124L115.65625 25.253124L115.65625 33.55L113.609375 33.55ZM117.984375 25.253124L120.015625 25.253124L120.015625 26.378124Q121.09375 25.065624 122.59375 25.065624Q123.390625 25.065624 123.96875 25.39375Q124.5625 25.721874 124.9375 26.378124Q125.484375 25.721874 126.109375 25.39375Q126.75 25.065624 127.46875 25.065624Q128.39062 25.065624 129.01562 25.440624Q129.65625 25.8 129.96875 26.51875Q130.1875 27.05 130.1875 28.2375L130.1875 33.55L128.0 33.55L128.0 28.8Q128.0 27.565624 127.765625 27.20625Q127.46875 26.7375 126.828125 26.7375Q126.375 26.7375 125.96875 27.01875Q125.5625 27.3 125.375 27.846874Q125.203125 28.39375 125.203125 29.565624L125.203125 33.55L123.0 33.55L123.0 29.003124Q123.0 27.784374 122.875 27.440624Q122.765625 27.08125 122.515625 26.909374Q122.28125 26.7375 121.859375 26.7375Q121.34375 26.7375 120.9375 27.01875Q120.53125 27.284374 120.359375 27.8Q120.1875 28.315624 120.1875 29.51875L120.1875 33.55L117.984375 33.55L117.984375 25.253124ZM136.0625 33.55L136.0625 22.096874L138.25 22.096874L138.25 26.221874Q139.26562 25.065624 140.65625 25.065624Q142.17188 25.065624 143.15625 26.159374Q144.15625 27.253124 144.15625 29.315624Q144.15625 31.440624 143.14062 32.596874Q142.14062 33.7375 140.6875 33.7375Q139.98438 33.7375 139.28125 33.378124Q138.59375 33.01875 138.09375 32.33125L138.09375 33.55L136.0625 33.55ZM138.23438 29.221874Q138.23438 30.503124 138.64062 31.128124Q139.21875 32.003124 140.15625 32.003124Q140.89062 32.003124 141.39062 31.378124Q141.90625 30.753124 141.90625 29.425Q141.90625 28.003124 141.39062 27.378124Q140.875 26.7375 140.07812 26.7375Q139.28125 26.7375 138.75 27.3625Q138.23438 27.971874 138.23438 29.221874ZM147.79688 27.784374L145.79688 27.425Q146.14062 26.221874 146.95312 25.64375Q147.78125 25.065624 149.39062 25.065624Q150.85938 25.065624 151.57812 25.409374Q152.29688 25.753124 152.59375 26.3Q152.89062 26.83125 152.89062 28.253124L152.85938 30.815624Q152.85938 31.909374 152.96875 32.440624Q153.07812 32.95625 153.35938 33.55L151.1875 33.55Q151.10938 33.33125 150.98438 32.89375Q150.92188 32.70625 150.90625 32.64375Q150.34375 33.190624 149.70312 33.471874Q149.0625 33.7375 148.32812 33.7375Q147.04688 33.7375 146.3125 33.05Q145.57812 32.346874 145.57812 31.284374Q145.57812 30.58125 145.90625 30.034374Q146.25 29.471874 146.84375 29.190624Q147.45312 28.89375 148.59375 28.675Q150.14062 28.378124 150.73438 28.128124L150.73438 27.909374Q150.73438 27.284374 150.42188 27.01875Q150.10938 26.7375 149.23438 26.7375Q148.65625 26.7375 148.32812 26.971874Q148.0 27.20625 147.79688 27.784374ZM150.73438 29.565624Q150.3125 29.70625 149.39062 29.909374Q148.48438 30.096874 148.20312 30.284374Q147.76562 30.58125 147.76562 31.05Q147.76562 31.51875 148.10938 31.8625Q148.45312 32.190624 148.98438 32.190624Q149.57812 32.190624 150.125 31.8Q150.51562 31.503124 150.64062 31.065624Q150.73438 30.784374 150.73438 30.003124L150.73438 29.565624ZM158.95312 25.253124L158.95312 27.003124L157.45312 27.003124L157.45312 30.346874Q157.45312 31.3625 157.5 31.534374Q157.54688 31.690624 157.6875 31.8Q157.84375 31.909374 158.0625 31.909374Q158.375 31.909374 158.95312 31.70625L159.14062 33.409374Q158.375 33.7375 157.40625 33.7375Q156.8125 33.7375 156.32812 33.534374Q155.85938 33.33125 155.625 33.01875Q155.40625 32.70625 155.32812 32.159374Q155.25 31.784374 155.25 30.6125L155.25 27.003124L154.25 27.003124L154.25 25.253124L155.25 25.253124L155.25 23.596874L157.45312 22.315624L157.45312 25.253124L158.95312 25.253124ZM167.39062 27.70625L165.21875 28.096874Q165.10938 27.440624 164.71875 27.1125Q164.34375 26.784374 163.71875 26.784374Q162.90625 26.784374 162.40625 27.3625Q161.92188 27.925 161.92188 29.253124Q161.92188 30.721874 162.42188 31.33125Q162.92188 31.940624 163.75 31.940624Q164.375 31.940624 164.76562 31.596874Q165.17188 31.2375 165.34375 30.3625L167.5 30.7375Q167.15625 32.221874 166.20312 32.9875Q165.25 33.7375 163.65625 33.7375Q161.82812 33.7375 160.75 32.596874Q159.67188 31.440624 159.67188 29.409374Q159.67188 27.346874 160.75 26.20625Q161.84375 25.065624 163.6875 25.065624Q165.20312 25.065624 166.09375 25.721874Q167.0 26.3625 167.39062 27.70625ZM171.34375 22.096874L171.34375 26.3Q172.40625 25.065624 173.875 25.065624Q174.64062 25.065624 175.25 25.346874Q175.85938 25.628124 176.15625 26.065624Q176.46875 26.503124 176.57812 27.034374Q176.70312 27.565624 176.70312 28.675L176.70312 33.55L174.5 33.55L174.5 29.159374Q174.5 27.8625 174.375 27.51875Q174.25 27.159374 173.9375 26.95625Q173.625 26.7375 173.14062 26.7375Q172.59375 26.7375 172.15625 27.003124Q171.73438 27.26875 171.53125 27.815624Q171.34375 28.346874 171.34375 29.39375L171.34375 33.55L169.14062 33.55L169.14062 22.096874L171.34375 22.096874ZM178.90625 30.4875L178.90625 28.3L183.21875 28.3L183.21875 30.4875L178.90625 30.4875ZM183.375 31.175L185.57812 30.846874Q185.71875 31.4875 186.14062 31.815624Q186.57812 32.14375 187.35938 32.14375Q188.20312 32.14375 188.64062 31.83125Q188.92188 31.6125 188.92188 31.253124Q188.92188 31.003124 188.76562 30.83125Q188.60938 30.675 188.03125 30.55Q185.375 29.95625 184.67188 29.471874Q183.6875 28.8 183.6875 27.6125Q183.6875 26.534374 184.53125 25.8Q185.39062 25.065624 187.17188 25.065624Q188.875 25.065624 189.70312 25.628124Q190.53125 26.175 190.84375 27.253124L188.78125 27.64375Q188.64062 27.159374 188.26562 26.909374Q187.90625 26.64375 187.21875 26.64375Q186.34375 26.64375 185.96875 26.878124Q185.71875 27.05 185.71875 27.33125Q185.71875 27.565624 185.9375 27.721874Q186.23438 27.940624 187.98438 28.346874Q189.75 28.7375 190.4375 29.315624Q191.125 29.909374 191.125 30.95625Q191.125 32.096874 190.17188 32.925Q189.21875 33.7375 187.35938 33.7375Q185.65625 33.7375 184.67188 33.05Q183.6875 32.3625 183.375 31.175ZM193.15625 24.128124L193.15625 22.096874L195.34375 22.096874L195.34375 24.128124L193.15625 24.128124ZM193.15625 33.55L193.15625 25.253124L195.34375 25.253124L195.34375 33.55L193.15625 33.55ZM196.26562 33.55L196.26562 31.83125L199.375 28.26875Q200.14062 27.39375 200.51562 27.01875Q200.125 27.05 199.5 27.05L196.57812 27.065624L196.57812 25.253124L203.4375 25.253124L203.4375 26.8L200.26562 30.45625L199.14062 31.675Q200.0625 31.6125 200.28125 31.6125L203.67188 31.6125L203.67188 33.55L196.26562 33.55ZM210.95312 30.909374L213.14062 31.26875Q212.71875 32.471874 211.8125 33.1125Q210.90625 33.7375 209.53125 33.7375Q207.375 33.7375 206.32812 32.315624Q205.51562 31.190624 205.51562 29.45625Q205.51562 27.39375 206.59375 26.2375Q207.67188 25.065624 209.3125 25.065624Q211.17188 25.065624 212.23438 26.284374Q213.3125 27.503124 213.26562 30.034374L207.76562 30.034374Q207.78125 31.003124 208.28125 31.55Q208.79688 32.096874 209.5625 32.096874Q210.07812 32.096874 210.42188 31.815624Q210.78125 31.534374 210.95312 30.909374ZM211.07812 28.690624Q211.0625 27.7375 210.59375 27.2375Q210.125 26.7375 209.45312 26.7375Q208.73438 26.7375 208.26562 27.26875Q207.79688 27.784374 207.79688 28.690624L211.07812 28.690624ZM218.64062 29.284374Q218.64062 28.190624 219.17188 27.175Q219.71875 26.14375 220.70312 25.6125Q221.70312 25.065624 222.92188 25.065624Q224.79688 25.065624 226.0 26.284374Q227.20312 27.503124 227.20312 29.378124Q227.20312 31.253124 225.98438 32.503124Q224.78125 33.7375 222.9375 33.7375Q221.79688 33.7375 220.75 33.221874Q219.71875 32.70625 219.17188 31.70625Q218.64062 30.70625 218.64062 29.284374ZM220.89062 29.39375Q220.89062 30.628124 221.46875 31.284374Q222.0625 31.940624 222.92188 31.940624Q223.78125 31.940624 224.35938 31.284374Q224.95312 30.628124 224.95312 29.378124Q224.95312 28.159374 224.35938 27.503124Q223.78125 26.846874 222.92188 26.846874Q222.0625 26.846874 221.46875 27.503124Q220.89062 28.159374 220.89062 29.39375ZM236.70312 33.55L234.5 33.55L234.5 29.315624Q234.5 27.971874 234.35938 27.58125Q234.21875 27.175 233.90625 26.95625Q233.59375 26.7375 233.14062 26.7375Q232.57812 26.7375 232.125 27.05Q231.67188 27.3625 231.5 27.878124Q231.32812 28.39375 231.32812 29.784374L231.32812 33.55L229.14062 33.55L229.14062 25.253124L231.17188 25.253124L231.17188 26.471874Q232.26562 25.065624 233.90625 25.065624Q234.64062 25.065624 235.23438 25.33125Q235.84375 25.58125 236.14062 25.9875Q236.45312 26.39375 236.57812 26.909374Q236.70312 27.425 236.70312 28.39375L236.70312 33.55ZM244.79688 27.784374L242.79688 27.425Q243.14062 26.221874 243.95312 25.64375Q244.78125 25.065624 246.39062 25.065624Q247.85938 25.065624 248.57812 25.409374Q249.29688 25.753124 249.59375 26.3Q249.89062 26.83125 249.89062 28.253124L249.85938 30.815624Q249.85938 31.909374 249.96875 32.440624Q250.07812 32.95625 250.35938 33.55L248.1875 33.55Q248.10938 33.33125 247.98438 32.89375Q247.92188 32.70625 247.90625 32.64375Q247.34375 33.190624 246.70312 33.471874Q246.0625 33.7375 245.32812 33.7375Q244.04688 33.7375 243.3125 33.05Q242.57812 32.346874 242.57812 31.284374Q242.57812 30.58125 242.90625 30.034374Q243.25 29.471874 243.84375 29.190624Q244.45312 28.89375 245.59375 28.675Q247.14062 28.378124 247.73438 28.128124L247.73438 27.909374Q247.73438 27.284374 247.42188 27.01875Q247.10938 26.7375 246.23438 26.7375Q245.65625 26.7375 245.32812 26.971874Q245.0 27.20625 244.79688 27.784374ZM247.73438 29.565624Q247.3125 29.70625 246.39062 29.909374Q245.48438 30.096874 245.20312 30.284374Q244.76562 30.58125 244.76562 31.05Q244.76562 31.51875 245.10938 31.8625Q245.45312 32.190624 245.98438 32.190624Q246.57812 32.190624 247.125 31.8Q247.51562 31.503124 247.64062 31.065624Q247.73438 30.784374 247.73438 30.003124L247.73438 29.565624ZM261.29688 33.55L259.10938 33.55L259.10938 25.26875Q257.90625 26.39375 256.26562 26.940624L256.26562 24.940624Q257.125 24.659374 258.125 23.878124Q259.14062 23.096874 259.51562 22.05L261.29688 22.05L261.29688 33.55ZM264.09375 33.55L267.09375 29.26875L264.21875 25.253124L266.90625 25.253124L268.375 27.534374L269.92188 25.253124L272.5 25.253124L269.6875 29.175L272.75 33.55L270.0625 33.55L268.375 30.971874L266.67188 33.55L264.09375 33.55ZM275.5625 27.3625Q274.71875 27.003124 274.32812 26.378124Q273.9375 25.753124 273.9375 25.003124Q273.9375 23.721874 274.82812 22.89375Q275.73438 22.05 277.375 22.05Q279.01562 22.05 279.90625 22.89375Q280.8125 23.721874 280.8125 25.003124Q280.8125 25.8 280.39062 26.425Q279.98438 27.034374 279.23438 27.3625Q280.1875 27.753124 280.6875 28.4875Q281.1875 29.221874 281.1875 30.175Q281.1875 31.76875 280.17188 32.76875Q279.15625 33.753124 277.48438 33.753124Q275.92188 33.753124 274.875 32.925Q273.65625 31.95625 273.65625 30.26875Q273.65625 29.346874 274.10938 28.565624Q274.57812 27.784374 275.5625 27.3625ZM276.01562 25.159374Q276.01562 25.815624 276.39062 26.190624Q276.76562 26.55 277.375 26.55Q278.0 26.55 278.375 26.175Q278.75 25.8 278.75 25.14375Q278.75 24.534374 278.375 24.159374Q278.01562 23.784374 277.40625 23.784374Q276.76562 23.784374 276.39062 24.159374Q276.01562 24.534374 276.01562 25.159374ZM275.8125 30.065624Q275.8125 30.971874 276.28125 31.4875Q276.75 31.9875 277.4375 31.9875Q278.125 31.9875 278.5625 31.503124Q279.01562 31.003124 279.01562 30.08125Q279.01562 29.284374 278.5625 28.8Q278.10938 28.3 277.40625 28.3Q276.60938 28.3 276.20312 28.8625Q275.8125 29.409374 275.8125 30.065624ZM297.5 33.55L294.98438 33.55L293.98438 30.940624L289.40625 30.940624L288.45312 33.55L286.0 33.55L290.46875 22.096874L292.90625 22.096874L297.5 33.55ZM293.23438 29.01875L291.65625 24.76875L290.10938 29.01875L293.23438 29.01875ZM303.29688 33.55L301.10938 33.55L301.10938 25.26875Q299.90625 26.39375 298.26562 26.940624L298.26562 24.940624Q299.125 24.659374 300.125 23.878124Q301.14062 23.096874 301.51562 22.05L303.29688 22.05L303.29688 33.55ZM310.39062 22.05Q312.0625 22.05 313.0 23.2375Q314.10938 24.64375 314.10938 27.89375Q314.10938 31.14375 312.98438 32.565624Q312.0625 33.753124 310.39062 33.753124Q308.71875 33.753124 307.6875 32.471874Q306.67188 31.175 306.67188 27.878124Q306.67188 24.64375 307.79688 23.221874Q308.73438 22.05 310.39062 22.05ZM310.39062 23.8625Q310.0 23.8625 309.6875 24.128124Q309.375 24.378124 309.20312 25.034374Q308.96875 25.878124 308.96875 27.89375Q308.96875 29.909374 309.17188 30.675Q309.375 31.425 309.6875 31.675Q310.0 31.925 310.39062 31.925Q310.79688 31.925 311.10938 31.675Q311.42188 31.409374 311.59375 30.753124Q311.8125 29.909374 311.8125 27.89375Q311.8125 25.878124 311.60938 25.128124Q311.40625 24.378124 311.09375 24.128124Q310.79688 23.8625 310.39062 23.8625ZM319.39062 22.05Q321.0625 22.05 322.0 23.2375Q323.10938 24.64375 323.10938 27.89375Q323.10938 31.14375 321.98438 32.565624Q321.0625 33.753124 319.39062 33.753124Q317.71875 33.753124 316.6875 32.471874Q315.67188 31.175 315.67188 27.878124Q315.67188 24.64375 316.79688 23.221874Q317.73438 22.05 319.39062 22.05ZM319.39062 23.8625Q319.0 23.8625 318.6875 24.128124Q318.375 24.378124 318.20312 25.034374Q317.96875 25.878124 317.96875 27.89375Q317.96875 29.909374 318.17188 30.675Q318.375 31.425 318.6875 31.675Q319.0 31.925 319.39062 31.925Q319.79688 31.925 320.10938 31.675Q320.42188 31.409374 320.59375 30.753124Q320.8125 29.909374 320.8125 27.89375Q320.8125 25.878124 320.60938 25.128124Q320.40625 24.378124 320.09375 24.128124Q319.79688 23.8625 319.39062 23.8625ZM332.98438 33.55L332.98438 31.2375L328.29688 31.2375L328.29688 29.315624L333.26562 22.05L335.10938 22.05L335.10938 29.315624L336.53125 29.315624L336.53125 31.2375L335.10938 31.2375L335.10938 33.55L332.98438 33.55ZM332.98438 29.315624L332.98438 25.39375L330.35938 29.315624L332.98438 29.315624ZM341.39062 22.05Q343.0625 22.05 344.0 23.2375Q345.10938 24.64375 345.10938 27.89375Q345.10938 31.14375 343.98438 32.565624Q343.0625 33.753124 341.39062 33.753124Q339.71875 33.753124 338.6875 32.471874Q337.67188 31.175 337.67188 27.878124Q337.67188 24.64375 338.79688 23.221874Q339.73438 22.05 341.39062 22.05ZM341.39062 23.8625Q341.0 23.8625 340.6875 24.128124Q340.375 24.378124 340.20312 25.034374Q339.96875 25.878124 339.96875 27.89375Q339.96875 29.909374 340.17188 30.675Q340.375 31.425 340.6875 31.675Q341.0 31.925 341.39062 31.925Q341.79688 31.925 342.10938 31.675Q342.42188 31.409374 342.59375 30.753124Q342.8125 29.909374 342.8125 27.89375Q342.8125 25.878124 342.60938 25.128124Q342.40625 24.378124 342.09375 24.128124Q341.79688 23.8625 341.39062 23.8625ZM352.5 29.33125L352.5 27.409374L357.48438 27.409374L357.48438 31.971874Q356.75 32.675 355.375 33.221874Q354.0 33.753124 352.57812 33.753124Q350.78125 33.753124 349.4375 33.003124Q348.10938 32.2375 347.4375 30.83125Q346.76562 29.425 346.76562 27.784374Q346.76562 25.9875 347.51562 24.596874Q348.26562 23.20625 349.71875 22.471874Q350.8125 21.89375 352.45312 21.89375Q354.59375 21.89375 355.78125 22.8Q356.98438 23.690624 357.32812 25.26875L355.03125 25.690624Q354.79688 24.846874 354.125 24.3625Q353.45312 23.878124 352.45312 23.878124Q350.9375 23.878124 350.04688 24.846874Q349.15625 25.8 349.15625 27.690624Q349.15625 29.721874 350.0625 30.753124Q350.96875 31.76875 352.4375 31.76875Q353.15625 31.76875 353.89062 31.4875Q354.625 31.190624 355.14062 30.784374L355.14062 29.33125L352.5 29.33125ZM359.17188 22.096874L363.75 22.096874Q365.10938 22.096874 365.78125 22.20625Q366.45312 22.315624 366.96875 22.675Q367.5 23.034374 367.84375 23.64375Q368.20312 24.2375 368.20312 24.971874Q368.20312 25.784374 367.76562 26.45625Q367.34375 27.128124 366.59375 27.45625Q367.64062 27.76875 368.20312 28.503124Q368.76562 29.2375 368.76562 30.221874Q368.76562 31.003124 368.40625 31.753124Q368.04688 32.4875 367.40625 32.925Q366.78125 33.3625 365.85938 33.471874Q365.28125 33.534374 363.07812 33.55L359.17188 33.55L359.17188 22.096874ZM361.48438 24.003124L361.48438 26.64375L363.0 26.64375Q364.35938 26.64375 364.6875 26.6125Q365.28125 26.534374 365.60938 26.20625Q365.95312 25.8625 365.95312 25.3Q365.95312 24.76875 365.65625 24.440624Q365.375 24.1125 364.79688 24.034374Q364.45312 24.003124 362.8125 24.003124L361.48438 24.003124ZM361.48438 28.55L361.48438 31.6125L363.625 31.6125Q364.875 31.6125 365.21875 31.55Q365.73438 31.45625 366.04688 31.096874Q366.375 30.721874 366.375 30.1125Q366.375 29.596874 366.125 29.2375Q365.875 28.878124 365.40625 28.721874Q364.9375 28.55 363.35938 28.55L361.48438 28.55ZM382.70312 33.55L380.5 33.55L380.5 29.315624Q380.5 27.971874 380.35938 27.58125Q380.21875 27.175 379.90625 26.95625Q379.59375 26.7375 379.14062 26.7375Q378.57812 26.7375 378.125 27.05Q377.67188 27.3625 377.5 27.878124Q377.32812 28.39375 377.32812 29.784374L377.32812 33.55L375.14062 33.55L375.14062 25.253124L377.17188 25.253124L377.17188 26.471874Q378.26562 25.065624 379.90625 25.065624Q380.64062 25.065624 381.23438 25.33125Q381.84375 25.58125 382.14062 25.9875Q382.45312 26.39375 382.57812 26.909374Q382.70312 27.425 382.70312 28.39375L382.70312 33.55ZM384.64062 29.284374Q384.64062 28.190624 385.17188 27.175Q385.71875 26.14375 386.70312 25.6125Q387.70312 25.065624 388.92188 25.065624Q390.79688 25.065624 392.0 26.284374Q393.20312 27.503124 393.20312 29.378124Q393.20312 31.253124 391.98438 32.503124Q390.78125 33.7375 388.9375 33.7375Q387.79688 33.7375 386.75 33.221874Q385.71875 32.70625 385.17188 31.70625Q384.64062 30.70625 384.64062 29.284374ZM386.89062 29.39375Q386.89062 30.628124 387.46875 31.284374Q388.0625 31.940624 388.92188 31.940624Q389.78125 31.940624 390.35938 31.284374Q390.95312 30.628124 390.95312 29.378124Q390.95312 28.159374 390.35938 27.503124Q389.78125 26.846874 388.92188 26.846874Q388.0625 26.846874 387.46875 27.503124Q386.89062 28.159374 386.89062 29.39375ZM402.76562 33.55L400.71875 33.55L400.71875 32.33125Q400.21875 33.034374 399.51562 33.39375Q398.82812 33.7375 398.125 33.7375Q396.70312 33.7375 395.67188 32.58125Q394.65625 31.425 394.65625 29.3625Q394.65625 27.253124 395.64062 26.159374Q396.64062 25.065624 398.15625 25.065624Q399.54688 25.065624 400.5625 26.221874L400.5625 22.096874L402.76562 22.096874L402.76562 33.55ZM396.90625 29.221874Q396.90625 30.55 397.26562 31.14375Q397.79688 32.003124 398.75 32.003124Q399.51562 32.003124 400.04688 31.3625Q400.57812 30.70625 400.57812 29.425Q400.57812 28.003124 400.0625 27.378124Q399.54688 26.7375 398.73438 26.7375Q397.95312 26.7375 397.42188 27.3625Q396.90625 27.9875 396.90625 29.221874ZM409.95312 30.909374L412.14062 31.26875Q411.71875 32.471874 410.8125 33.1125Q409.90625 33.7375 408.53125 33.7375Q406.375 33.7375 405.32812 32.315624Q404.51562 31.190624 404.51562 29.45625Q404.51562 27.39375 405.59375 26.2375Q406.67188 25.065624 408.3125 25.065624Q410.17188 25.065624 411.23438 26.284374Q412.3125 27.503124 412.26562 30.034374L406.76562 30.034374Q406.78125 31.003124 407.28125 31.55Q407.79688 32.096874 408.5625 32.096874Q409.07812 32.096874 409.42188 31.815624Q409.78125 31.534374 409.95312 30.909374ZM410.07812 28.690624Q410.0625 27.7375 409.59375 27.2375Q409.125 26.7375 408.45312 26.7375Q407.73438 26.7375 407.26562 27.26875Q406.79688 27.784374 406.79688 28.690624L410.07812 28.690624ZM419.70312 33.55L417.07812 25.253124L419.20312 25.253124L420.76562 30.690624L422.1875 25.253124L424.3125 25.253124L425.6875 30.690624L427.28125 25.253124L429.4375 25.253124L426.78125 33.55L424.67188 33.55L423.23438 28.20625L421.82812 33.55L419.70312 33.55ZM429.96875 33.753124L432.8125 21.89375L434.46875 21.89375L431.59375 33.753124L429.96875 33.753124ZM442.95312 25.253124L442.95312 27.003124L441.45312 27.003124L441.45312 30.346874Q441.45312 31.3625 441.5 31.534374Q441.54688 31.690624 441.6875 31.8Q441.84375 31.909374 442.0625 31.909374Q442.375 31.909374 442.95312 31.70625L443.14062 33.409374Q442.375 33.7375 441.40625 33.7375Q440.8125 33.7375 440.32812 33.534374Q439.85938 33.33125 439.625 33.01875Q439.40625 32.70625 439.32812 32.159374Q439.25 31.784374 439.25 30.6125L439.25 27.003124L438.25 27.003124L438.25 25.253124L439.25 25.253124L439.25 23.596874L441.45312 22.315624L441.45312 25.253124L442.95312 25.253124ZM443.64062 29.284374Q443.64062 28.190624 444.17188 27.175Q444.71875 26.14375 445.70312 25.6125Q446.70312 25.065624 447.92188 25.065624Q449.79688 25.065624 451.0 26.284374Q452.20312 27.503124 452.20312 29.378124Q452.20312 31.253124 450.98438 32.503124Q449.78125 33.7375 447.9375 33.7375Q446.79688 33.7375 445.75 33.221874Q444.71875 32.70625 444.17188 31.70625Q443.64062 30.70625 443.64062 29.284374ZM445.89062 29.39375Q445.89062 30.628124 446.46875 31.284374Q447.0625 31.940624 447.92188 31.940624Q448.78125 31.940624 449.35938 31.284374Q449.95312 30.628124 449.95312 29.378124Q449.95312 28.159374 449.35938 27.503124Q448.78125 26.846874 447.92188 26.846874Q447.0625 26.846874 446.46875 27.503124Q445.89062 28.159374 445.89062 29.39375ZM456.25 33.55L454.0625 33.55L454.0625 25.253124L456.09375 25.253124L456.09375 26.425Q456.625 25.596874 457.03125 25.33125Q457.45312 25.065624 457.98438 25.065624Q458.73438 25.065624 459.4375 25.471874L458.75 27.39375Q458.20312 27.034374 457.71875 27.034374Q457.26562 27.034374 456.9375 27.284374Q456.625 27.534374 456.4375 28.20625Q456.25 28.8625 456.25 30.9875L456.25 33.55ZM467.39062 27.70625L465.21875 28.096874Q465.10938 27.440624 464.71875 27.1125Q464.34375 26.784374 463.71875 26.784374Q462.90625 26.784374 462.40625 27.3625Q461.92188 27.925 461.92188 29.253124Q461.92188 30.721874 462.42188 31.33125Q462.92188 31.940624 463.75 31.940624Q464.375 31.940624 464.76562 31.596874Q465.17188 31.2375 465.34375 30.3625L467.5 30.7375Q467.15625 32.221874 466.20312 32.9875Q465.25 33.7375 463.65625 33.7375Q461.82812 33.7375 460.75 32.596874Q459.67188 31.440624 459.67188 29.409374Q459.67188 27.346874 460.75 26.20625Q461.84375 25.065624 463.6875 25.065624Q465.20312 25.065624 466.09375 25.721874Q467.0 26.3625 467.39062 27.70625ZM471.34375 22.096874L471.34375 26.3Q472.40625 25.065624 473.875 25.065624Q474.64062 25.065624 475.25 25.346874Q475.85938 25.628124 476.15625 26.065624Q476.46875 26.503124 476.57812 27.034374Q476.70312 27.565624 476.70312 28.675L476.70312 33.55L474.5 33.55L474.5 29.159374Q474.5 27.8625 474.375 27.51875Q474.25 27.159374 473.9375 26.95625Q473.625 26.7375 473.14062 26.7375Q472.59375 26.7375 472.15625 27.003124Q471.73438 27.26875 471.53125 27.815624Q471.34375 28.346874 471.34375 29.39375L471.34375 33.55L469.14062 33.55L469.14062 22.096874L471.34375 22.096874ZM479.15625 33.55L479.15625 31.346874L481.34375 31.346874L481.34375 33.55L479.15625 33.55ZM490.39062 27.70625L488.21875 28.096874Q488.10938 27.440624 487.71875 27.1125Q487.34375 26.784374 486.71875 26.784374Q485.90625 26.784374 485.40625 27.3625Q484.92188 27.925 484.92188 29.253124Q484.92188 30.721874 485.42188 31.33125Q485.92188 31.940624 486.75 31.940624Q487.375 31.940624 487.76562 31.596874Q488.17188 31.2375 488.34375 30.3625L490.5 30.7375Q490.15625 32.221874 489.20312 32.9875Q488.25 33.7375 486.65625 33.7375Q484.82812 33.7375 483.75 32.596874Q482.67188 31.440624 482.67188 29.409374Q482.67188 27.346874 483.75 26.20625Q484.84375 25.065624 486.6875 25.065624Q488.20312 25.065624 489.09375 25.721874Q490.0 26.3625 490.39062 27.70625ZM491.64062 29.284374Q491.64062 28.190624 492.17188 27.175Q492.71875 26.14375 493.70312 25.6125Q494.70312 25.065624 495.92188 25.065624Q497.79688 25.065624 499.0 26.284374Q500.20312 27.503124 500.20312 29.378124Q500.20312 31.253124 498.98438 32.503124Q497.78125 33.7375 495.9375 33.7375Q494.79688 33.7375 493.75 33.221874Q492.71875 32.70625 492.17188 31.70625Q491.64062 30.70625 491.64062 29.284374ZM493.89062 29.39375Q493.89062 30.628124 494.46875 31.284374Q495.0625 31.940624 495.92188 31.940624Q496.78125 31.940624 497.35938 31.284374Q497.95312 30.628124 497.95312 29.378124Q497.95312 28.159374 497.35938 27.503124Q496.78125 26.846874 495.92188 26.846874Q495.0625 26.846874 494.46875 27.503124Q493.89062 28.159374 493.89062 29.39375ZM501.98438 25.253124L504.01562 25.253124L504.01562 26.378124Q505.09375 25.065624 506.59375 25.065624Q507.39062 25.065624 507.96875 25.39375Q508.5625 25.721874 508.9375 26.378124Q509.48438 25.721874 510.10938 25.39375Q510.75 25.065624 511.46875 25.065624Q512.3906 25.065624 513.0156 25.440624Q513.65625 25.8 513.96875 26.51875Q514.1875 27.05 514.1875 28.2375L514.1875 33.55L512.0 33.55L512.0 28.8Q512.0 27.565624 511.76562 27.20625Q511.46875 26.7375 510.82812 26.7375Q510.375 26.7375 509.96875 27.01875Q509.5625 27.3 509.375 27.846874Q509.20312 28.39375 509.20312 29.565624L509.20312 33.55L507.0 33.55L507.0 29.003124Q507.0 27.784374 506.875 27.440624Q506.76562 27.08125 506.51562 26.909374Q506.28125 26.7375 505.85938 26.7375Q505.34375 26.7375 504.9375 27.01875Q504.53125 27.284374 504.35938 27.8Q504.1875 28.315624 504.1875 29.51875L504.1875 33.55L501.98438 33.55L501.98438 25.253124ZM516.09375 25.253124L518.1406 25.253124L518.1406 26.471874Q518.53125 25.846874 519.2031 25.45625Q519.8906 25.065624 520.71875 25.065624Q522.1719 25.065624 523.1719 26.20625Q524.1875 27.33125 524.1875 29.346874Q524.1875 31.425 523.1719 32.58125Q522.15625 33.7375 520.7031 33.7375Q520.0156 33.7375 519.4531 33.471874Q518.90625 33.190624 518.28125 32.51875L518.28125 36.70625L516.09375 36.70625L516.09375 25.253124ZM518.2656 29.253124Q518.2656 30.659374 518.8125 31.33125Q519.375 31.9875 520.1719 31.9875Q520.9375 31.9875 521.4375 31.378124Q521.9531 30.76875 521.9531 29.3625Q521.9531 28.065624 521.4219 27.440624Q520.90625 26.8 520.125 26.8Q519.3281 26.8 518.7969 27.425Q518.2656 28.034374 518.2656 29.253124ZM526.15625 24.128124L526.15625 22.096874L528.34375 22.096874L528.34375 24.128124L526.15625 24.128124ZM526.15625 33.55L526.15625 25.253124L528.34375 25.253124L528.34375 33.55L526.15625 33.55ZM530.15625 33.55L530.15625 22.096874L532.34375 22.096874L532.34375 33.55L530.15625 33.55ZM538.9531 30.909374L541.1406 31.26875Q540.71875 32.471874 539.8125 33.1125Q538.90625 33.7375 537.53125 33.7375Q535.375 33.7375 534.3281 32.315624Q533.5156 31.190624 533.5156 29.45625Q533.5156 27.39375 534.59375 26.2375Q535.6719 25.065624 537.3125 25.065624Q539.1719 25.065624 540.2344 26.284374Q541.3125 27.503124 541.2656 30.034374L535.7656 30.034374Q535.78125 31.003124 536.28125 31.55Q536.7969 32.096874 537.5625 32.096874Q538.0781 32.096874 538.4219 31.815624Q538.78125 31.534374 538.9531 30.909374ZM539.0781 28.690624Q539.0625 27.7375 538.59375 27.2375Q538.125 26.7375 537.4531 26.7375Q536.7344 26.7375 536.2656 27.26875Q535.7969 27.784374 535.7969 28.690624L539.0781 28.690624Z" fill-rule="nonzero"/></svg>