<?xml version="1.0" encoding="UTF-8" standalone="no"?><!DOCTYPE svg PUBLIC "-//W3C//DTD SVG 1.1//EN" "http://www.w3.org/Graphics/SVG/1.1/DTD/svg11.dtd"><svg width="100%" height="100%" viewBox="0 0 167 167" version="1.1" xmlns="http://www.w3.org/2000/svg" xmlns:xlink="http://www.w3.org/1999/xlink" xml:space="preserve" xmlns:serif="http://www.serif.com/" style="fill-rule:evenodd;clip-rule:evenodd;stroke-linejoin:round;stroke-miterlimit:2;"><g><path d="M76.923,48.23c14.816,-14.815 29.629,-29.629 44.445,-44.444c3.704,-3.704 7.406,-3.988 9.972,-3.704l0.57,-0c2.28,0.284 4.559,0.57 7.123,1.709c11.681,4.559 20.229,13.106 25.356,24.786c0.855,1.995 1.425,3.988 1.709,5.984c0,0.57 0.284,1.425 0.284,1.995c0.285,0.57 0.285,1.425 0.285,2.279c-0.285,3.419 -1.709,5.984 -3.989,8.548c-25.926,25.926 -51.852,51.852 -77.778,77.778c-1.995,1.995 -3.988,3.134 -6.552,3.704c-9.686,1.996 -19.372,3.989 -29.061,6.268l-4.559,0.855c-0.854,0.284 -1.424,0.284 -2.279,0.284c-2.564,-0 -5.127,-0.855 -6.838,-2.85c-2.28,-2.279 -3.134,-5.697 -2.564,-9.118l1.139,-5.984c1.995,-9.401 3.988,-18.804 5.984,-27.92c0.854,-3.418 4.273,-5.697 7.693,-4.843c3.418,0.855 5.697,4.273 4.843,7.693c-1.995,9.402 -3.989,18.518 -5.984,27.92l-0.568,0.855c9.686,-1.996 19.372,-3.989 29.06,-6.268l0.284,-0c25.927,-26.211 52.137,-52.137 78.063,-78.063c0,-0.284 0,-0.571 -0.284,-0.855c-0.284,-1.425 -0.57,-2.563 -0.855,-3.418c-3.704,-8.547 -9.686,-14.529 -18.233,-17.949c-0.855,-0.284 -2.28,-0.571 -3.989,-0.855c-14.815,15.102 -29.347,29.917 -44.16,44.731l-19.943,19.942c-2.563,2.564 -6.552,2.564 -9.117,0c-2.564,-2.563 -2.564,-6.552 -0,-9.118l8.831,-8.831l11.112,-11.111Zm-61.823,-7.408l57.55,-0c3.418,-0 6.268,-2.85 6.268,-6.268c-0,-3.418 -2.85,-6.268 -6.268,-6.268l-57.55,0.002c-8.261,0 -15.1,6.838 -15.1,15.1l0,107.977c0,8.262 6.838,15.1 15.1,15.1l108.262,0c8.261,0 15.1,-6.838 15.1,-15.1l0,-55.27c0,-3.419 -2.85,-6.268 -6.268,-6.268c-3.418,-0 -6.268,2.85 -6.268,6.268l0,55.27c0,1.425 -1.138,2.564 -2.563,2.564l-108.263,0c-1.425,0 -2.563,-1.139 -2.563,-2.564l-0,-108.262c-0,-1.139 1.138,-2.28 2.563,-2.28l-0,-0.001Z" style="fill:#fbfbfb;fill-rule:nonzero;"/></g></svg>